<?xml version="1.0" encoding="UTF-8"?>
<svg version="1.1" xmlns="http://www.w3.org/2000/svg" width="470" height="81">
<path d="M0 0 C155.1 0 310.2 0 470 0 C470 26.73 470 53.46 470 81 C314.9 81 159.8 81 0 81 C0 54.27 0 27.54 0 0 Z " fill="#022F5C" transform="translate(0,0)"/>
<path d="M0 0 C1.32 0 2.64 0 4 0 C5.33819498 2.6226232 6.6707151 5.24786599 8 7.875 C8.57234375 8.99455078 8.57234375 8.99455078 9.15625 10.13671875 C9.69765625 11.20986328 9.69765625 11.20986328 10.25 12.3046875 C10.58515625 12.96452637 10.9203125 13.62436523 11.265625 14.30419922 C12 16 12 16 12 18 C13.2684375 18.12375 13.2684375 18.12375 14.5625 18.25 C18 19 18 19 25 23 C25 16.4 25 9.8 25 3 C23.68 3 22.36 3 21 3 C21 2.01 21 1.02 21 0 C26.61 0 32.22 0 38 0 C38 0.66 38 1.32 38 2 C36.35 2.33 34.7 2.66 33 3 C32.95047294 7.34161825 32.91422046 11.68308575 32.89013672 16.02490234 C32.88009409 17.50116847 32.86645735 18.97741479 32.84912109 20.45361328 C32.82479579 22.57850034 32.8134996 24.70312385 32.8046875 26.828125 C32.79421387 28.1059082 32.78374023 29.38369141 32.77294922 30.70019531 C32.98517004 33.7844713 33.26611403 35.48022435 35 38 C40.33349665 40.19408615 47.79293474 39.85580082 53.0625 37.8125 C56.15869599 34.91605859 56.92399962 32.050358 57.22705078 27.86206055 C57.21657715 26.71519775 57.20610352 25.56833496 57.1953125 24.38671875 C57.18886719 23.13955078 57.18242188 21.89238281 57.17578125 20.60742188 C57.15902344 19.31384766 57.14226562 18.02027344 57.125 16.6875 C57.11597656 15.37458984 57.10695313 14.06167969 57.09765625 12.70898438 C57.07411797 9.47247087 57.0412352 6.23632851 57 3 C55.35 2.67 53.7 2.34 52 2 C52 1.34 52 0.68 52 0 C56.62 0 61.24 0 66 0 C66 0.66 66 1.32 66 2 C64.35 2 62.7 2 61 2 C61.01571045 2.87736816 61.0314209 3.75473633 61.04760742 4.65869141 C61.09894376 7.93511952 61.13644997 11.21111598 61.16479492 14.48779297 C61.17981825 15.90192437 61.20024305 17.31600968 61.22631836 18.72998047 C61.26298954 20.77062397 61.27979036 22.81064792 61.29296875 24.8515625 C61.3086792 26.07697754 61.32438965 27.30239258 61.34057617 28.56494141 C60.84297691 33.58373823 59.25839133 36.838408 55.5625 40.25 C49.15409493 44.62647176 43.68252774 44.64331846 36 44 C33.35182608 43.25627583 31.41564761 42.34826843 29 41 C29 41.99 29 42.98 29 44 C23.39 44 17.78 44 12 44 C12 44.99 12 45.98 12 47 C2.26967471 47.62329486 2.26967471 47.62329486 -2.4375 45.3125 C-8.80412371 39.56701031 -8.80412371 39.56701031 -9.4375 34.5 C-8.79576159 29.36609273 -7.20410954 27.03609425 -3.3125 23.6875 C-2.549375 23.130625 -1.78625 22.57375 -1 22 C-2.11375 22.598125 -3.2275 23.19625 -4.375 23.8125 C-5.00148438 24.14894531 -5.62796875 24.48539063 -6.2734375 24.83203125 C-8.30502365 26.04763493 -8.30502365 26.04763493 -10 29 C-10.72070489 33.86894817 -10.81279759 38.44570145 -8 42.625 C-7.34 43.40875 -6.68 44.1925 -6 45 C-9.04386724 45.08226668 -11.07175348 44.97608217 -14 44 C-15.72795352 43.93197033 -17.45835365 43.91504355 -19.1875 43.9375 C-20.08855469 43.94652344 -20.98960938 43.95554688 -21.91796875 43.96484375 C-22.60503906 43.97644531 -23.29210938 43.98804688 -24 44 C-24 43.01 -24 42.02 -24 41 C-22.35 41 -20.7 41 -19 41 C-18.77957031 39.82244141 -18.77957031 39.82244141 -18.5546875 38.62109375 C-17.09474851 31.78287376 -15.66883151 26.4050011 -10 22 C-5.12286429 19.07197049 -0.77363659 17.40783214 5 18 C3.68 15.36 2.36 12.72 1 10 C-0.69013326 12.17302848 -2.15525986 14.27817391 -3.5 16.6875 C-5 19 -5 19 -8 20 C-7.52147263 16.05214918 -6.09550219 13.29555838 -4.0546875 9.9140625 C-2.30930842 6.74652269 -1.19580526 3.40804499 0 0 Z " fill="#153E69" transform="translate(59,16)"/>
<path d="M0 0 C1.32 0 2.64 0 4 0 C5.36907416 2.57637588 6.72028455 5.15968104 8.0625 7.75 C8.45244141 8.47960938 8.84238281 9.20921875 9.24414062 9.9609375 C9.60830078 10.66992188 9.97246094 11.37890625 10.34765625 12.109375 C10.68804932 12.75874023 11.02844238 13.40810547 11.37915039 14.07714844 C12.13558044 16.41991018 11.78821819 17.70456573 11 20 C11.62648437 20.17015625 12.25296875 20.3403125 12.8984375 20.515625 C13.71570313 20.75796875 14.53296875 21.0003125 15.375 21.25 C16.18710938 21.48203125 16.99921875 21.7140625 17.8359375 21.953125 C20.45785454 23.2214892 20.99382318 24.32423308 22 27 C20.02 26.01 18.04 25.02 16 24 C16.5053125 24.97582031 17.010625 25.95164062 17.53125 26.95703125 C18.18781656 28.2420258 18.8440492 29.52719101 19.5 30.8125 C19.83386719 31.45509766 20.16773438 32.09769531 20.51171875 32.75976562 C22.00239084 35.69547699 23 37.66126517 23 41 C24.32 41.66 25.64 42.32 27 43 C21.72 43 16.44 43 11 43 C11 42.34 11 41.68 11 41 C12.32 41 13.64 41 15 41 C12.87594923 35.5443163 10.72823857 30.18365329 8 25 C4.67260127 25.30249079 2.4372406 25.71234171 -0.375 27.5625 C-2.27015773 30.40523659 -2.62801636 32.63202584 -2.45703125 36.0390625 C-1.36784394 40.71232773 3.27386496 43.37790497 7 46 C0.16759156 46.71920089 0.16759156 46.71920089 -3.0546875 44.734375 C-5.48814864 42.65432108 -7.55846298 40.88307404 -9 38 C-9.37838031 32.98646089 -9.13135639 29.99517885 -6 26 C-3.3125 23.6875 -3.3125 23.6875 -1 22 C-2.11375 22.598125 -3.2275 23.19625 -4.375 23.8125 C-5.00148438 24.14894531 -5.62796875 24.48539063 -6.2734375 24.83203125 C-8.30502365 26.04763493 -8.30502365 26.04763493 -10 29 C-10.72070489 33.86894817 -10.81279759 38.44570145 -8 42.625 C-7.34 43.40875 -6.68 44.1925 -6 45 C-9.04386724 45.08226668 -11.07175348 44.97608217 -14 44 C-15.72795352 43.93197033 -17.45835365 43.91504355 -19.1875 43.9375 C-20.08855469 43.94652344 -20.98960938 43.95554688 -21.91796875 43.96484375 C-22.60503906 43.97644531 -23.29210938 43.98804688 -24 44 C-24 43.01 -24 42.02 -24 41 C-22.35 41 -20.7 41 -19 41 C-18.77957031 39.82244141 -18.77957031 39.82244141 -18.5546875 38.62109375 C-17.09474851 31.78287376 -15.66883151 26.4050011 -10 22 C-5.12286429 19.07197049 -0.77363659 17.40783214 5 18 C3.68 15.36 2.36 12.72 1 10 C-0.69013326 12.17302848 -2.15525986 14.27817391 -3.5 16.6875 C-5 19 -5 19 -8 20 C-7.52147263 16.05214918 -6.09550219 13.29555838 -4.0546875 9.9140625 C-2.30930842 6.74652269 -1.19580526 3.40804499 0 0 Z " fill="#E9EDF1" transform="translate(59,16)"/>
<path d="M0 0 C2.31 0 4.62 0 7 0 C7 0.66 7 1.32 7 2 C5.35 1.67 3.7 1.34 2 1 C2 1.99 2 2.98 2 4 C3.65 4.33 5.3 4.66 7 5 C7.35707031 4.35546875 7.71414062 3.7109375 8.08203125 3.046875 C10.78906891 0.15789794 12.80046879 0.40394183 16.6875 0.25 C17.86699219 0.19328125 19.04648438 0.1365625 20.26171875 0.078125 C21.16535156 0.05234375 22.06898438 0.0265625 23 0 C23 1.32 23 2.64 23 4 C23.99 3.67 24.98 3.34 26 3 C26 2.01 26 1.02 26 0 C31.37305699 0.1761658 31.37305699 0.1761658 34 1 C36 4.0625 36 4.0625 37 7 C38.32 4.69 39.64 2.38 41 0 C43.60527105 -0.10792837 46.20608311 -0.18724878 48.8125 -0.25 C49.55048828 -0.28351562 50.28847656 -0.31703125 51.04882812 -0.3515625 C56.49954311 -0.45021797 56.49954311 -0.45021797 59.0234375 1.8203125 C60.39700483 4.88611479 59.89939139 6.81753816 59 10 C57 12 57 12 53.375 12.125 C52.26125 12.08375 51.1475 12.0425 50 12 C50 9.03 50 6.06 50 3 C49.34 3 48.68 3 48 3 C48.495 7.455 48.495 7.455 49 12 C47.68 12 46.36 12 45 12 C44.505 7.545 44.505 7.545 44 3 C43.67 5.64 43.34 8.28 43 11 C42.34 11 41.68 11 41 11 C40.505 9.02 40.505 9.02 40 7 C39.731875 7.639375 39.46375 8.27875 39.1875 8.9375 C38 11 38 11 35 12 C33.43881572 12.06740865 31.8749748 12.08514456 30.3125 12.0625 C29.10013672 12.04896484 29.10013672 12.04896484 27.86328125 12.03515625 C26.94095703 12.01775391 26.94095703 12.01775391 26 12 C26.33 10.35 26.66 8.7 27 7 C25.35 7 23.7 7 22 7 C22.33 8.65 22.66 10.3 23 12 C21.66195312 11.89171875 21.66195312 11.89171875 20.296875 11.78125 C19.12640625 11.6884375 17.9559375 11.595625 16.75 11.5 C15.58984375 11.4071875 14.4296875 11.314375 13.234375 11.21875 C10.82731342 11.05595356 8.41256049 11 6 11 C4 11 2 11 0 11 C0.33 10.34 0.66 9.68 1 9 C2.98 9.495 2.98 9.495 5 10 C5 9.01 5 8.02 5 7 C3.35 6.67 1.7 6.34 0 6 C0 4.02 0 2.04 0 0 Z " fill="#65809C" transform="translate(228,57)"/>
<path d="M0 0 C5.61 0 11.22 0 17 0 C17 0.66 17 1.32 17 2 C15.35 2.33 13.7 2.66 12 3 C11.95047294 7.34161825 11.91422046 11.68308575 11.89013672 16.02490234 C11.88009409 17.50116847 11.86645735 18.97741479 11.84912109 20.45361328 C11.82479579 22.57850034 11.8134996 24.70312385 11.8046875 26.828125 C11.78897705 28.7447998 11.78897705 28.7447998 11.77294922 30.70019531 C11.98517004 33.7844713 12.26611403 35.48022435 14 38 C19.33349665 40.19408615 26.79293474 39.85580082 32.0625 37.8125 C35.15869599 34.91605859 35.92399962 32.050358 36.22705078 27.86206055 C36.21134033 26.14176636 36.21134033 26.14176636 36.1953125 24.38671875 C36.18564453 22.5159668 36.18564453 22.5159668 36.17578125 20.60742188 C36.15902344 19.31384766 36.14226562 18.02027344 36.125 16.6875 C36.11597656 15.37458984 36.10695312 14.06167969 36.09765625 12.70898438 C36.07411797 9.47247087 36.0412352 6.23632851 36 3 C33.525 2.505 33.525 2.505 31 2 C31 1.34 31 0.68 31 0 C35.62 0 40.24 0 45 0 C45 0.66 45 1.32 45 2 C43.35 2 41.7 2 40 2 C40.01571045 2.87736816 40.0314209 3.75473633 40.04760742 4.65869141 C40.09894376 7.93511952 40.13644997 11.21111598 40.16479492 14.48779297 C40.17981825 15.90192437 40.20024305 17.31600968 40.22631836 18.72998047 C40.26298954 20.77062397 40.27979036 22.81064792 40.29296875 24.8515625 C40.3086792 26.07697754 40.32438965 27.30239258 40.34057617 28.56494141 C39.84297691 33.58373823 38.25839133 36.838408 34.5625 40.25 C28.14734088 44.63108428 22.68828784 44.62156556 15 44 C10.65916236 42.50315943 8.29899261 40.9545756 6 37 C5.67571651 34.31857288 5.51199745 31.85552466 5.48828125 29.171875 C5.47033005 28.42286926 5.45237885 27.67386353 5.43388367 26.90216064 C5.37985457 24.51816376 5.34590997 22.1343662 5.3125 19.75 C5.27932025 18.13018064 5.24482997 16.51038756 5.20898438 14.890625 C5.12413284 10.92722734 5.05728711 6.96388803 5 3 C3.35 2.67 1.7 2.34 0 2 C0 1.34 0 0.68 0 0 Z " fill="#EFF2F5" transform="translate(80,16)"/>
<path d="M0 0 C13.2 0 26.4 0 40 0 C40 2.97 40 5.94 40 9 C39.01 9 38.02 9 37 9 C36.505 6.525 36.505 6.525 36 4 C27.75 3.67 19.5 3.34 11 3 C11 8.61 11 14.22 11 20 C20.9 19.505 20.9 19.505 31 19 C31.66 17.35 32.32 15.7 33 14 C33.66 14 34.32 14 35 14 C35 18.95 35 23.9 35 29 C34.34 29 33.68 29 33 29 C33 27.02 33 25.04 33 23 C25.74 22.67 18.48 22.34 11 22 C11.33 27.94 11.66 33.88 12 40 C13.65 40.33 15.3 40.66 17 41 C17 41.66 17 42.32 17 43 C11.39 43 5.78 43 0 43 C0 42.34 0 41.68 0 41 C2.475 40.505 2.475 40.505 5 40 C5 27.79 5 15.58 5 3 C3.35 2.67 1.7 2.34 0 2 C0 1.34 0 0.68 0 0 Z " fill="#EEF1F4" transform="translate(7,16)"/>
<path d="M0 0 C2.43816585 -0.0809723 4.87364384 -0.14046972 7.3125 -0.1875 C8.34793945 -0.22520508 8.34793945 -0.22520508 9.40429688 -0.26367188 C14.55674183 -0.33834499 14.55674183 -0.33834499 16.98046875 1.51171875 C17.31691406 2.00285156 17.65335938 2.49398437 18 3 C18.33 2.34 18.66 1.68 19 1 C19.99 1 20.98 1 22 1 C23.32 3.64 24.64 6.28 26 9 C26.33 6.03 26.66 3.06 27 0 C33.66666667 0 40.33333333 0 47 0 C47.66 1.65 48.32 3.3 49 5 C49.78375 4.175 50.5675 3.35 51.375 2.5 C54 0 54 0 56 0 C56 3.63 56 7.26 56 11 C55.01 11 54.02 11 53 11 C52.505 10.01 52.505 10.01 52 9 C51.01 9.33 50.02 9.66 49 10 C48.505 7.525 48.505 7.525 48 5 C47.34 5 46.68 5 46 5 C46.495 7.97 46.495 7.97 47 11 C46.34 11 45.68 11 45 11 C44.505 7.04 44.505 7.04 44 3 C43.01 2.67 42.02 2.34 41 2 C41 4.97 41 7.94 41 11 C40.01 11 39.02 11 38 11 C38 8.03 38 5.06 38 2 C36.68 2.99 35.36 3.98 34 5 C34.495 7.97 34.495 7.97 35 11 C34.34 11 33.68 11 33 11 C32.34 10.01 31.68 9.02 31 8 C30.67 8.99 30.34 9.98 30 11 C27.69 11 25.38 11 23 11 C23 10.01 23 9.02 23 8 C21.68 8 20.36 8 19 8 C19 8.99 19 9.98 19 11 C18.01 11 17.02 11 16 11 C16.33 9.02 16.66 7.04 17 5 C15.68 5.33 14.36 5.66 13 6 C12.67 4.68 12.34 3.36 12 2 C12 4.97 12 7.94 12 11 C8.04 11 4.08 11 0 11 C0 7.37 0 3.74 0 0 Z " fill="#67829D" transform="translate(147,40)"/>
<path d="M0 0 C36.96 0 73.92 0 112 0 C112 0.99 112 1.98 112 3 C75.04 3 38.08 3 0 3 C0 2.01 0 1.02 0 0 Z " fill="#E5E9EE" transform="translate(7,65)"/>
<path d="M0 0 C1.03688965 0.01047363 2.0737793 0.02094727 3.14208984 0.03173828 C4.26357422 0.03818359 5.38505859 0.04462891 6.54052734 0.05126953 C7.71615234 0.06802734 8.89177734 0.08478516 10.10302734 0.10205078 C11.87806641 0.11558594 11.87806641 0.11558594 13.68896484 0.12939453 C16.61885257 0.15302266 19.54834075 0.18596564 22.47802734 0.22705078 C22.47802734 3.19705078 22.47802734 6.16705078 22.47802734 9.22705078 C23.79802734 9.22705078 25.11802734 9.22705078 26.47802734 9.22705078 C26.47802734 10.21705078 26.47802734 11.20705078 26.47802734 12.22705078 C23.83802734 12.22705078 21.19802734 12.22705078 18.47802734 12.22705078 C18.47802734 11.23705078 18.47802734 10.24705078 18.47802734 9.22705078 C17.48802734 9.88705078 16.49802734 10.54705078 15.47802734 11.22705078 C9.14469401 11.56038411 9.14469401 11.56038411 6.47802734 10.22705078 C6.47802734 10.88705078 6.47802734 11.54705078 6.47802734 12.22705078 C-0.92453975 12.71246502 -0.92453975 12.71246502 -3.52197266 10.60205078 C-4.78151433 7.61063931 -4.87150224 5.44272294 -4.52197266 2.22705078 C-2.52197266 0.22705078 -2.52197266 0.22705078 0 0 Z " fill="#69849E" transform="translate(306.52197265625,56.77294921875)"/>
<path d="M0 0 C0.82741699 0.01047363 1.65483398 0.02094727 2.50732422 0.03173828 C3.40322266 0.03818359 4.29912109 0.04462891 5.22216797 0.05126953 C6.62789063 0.07640625 6.62789063 0.07640625 8.06201172 0.10205078 C9.00689453 0.11107422 9.95177734 0.12009766 10.92529297 0.12939453 C13.26278464 0.15300556 15.59977295 0.18593562 17.93701172 0.22705078 C17.93701172 1.21705078 17.93701172 2.20705078 17.93701172 3.22705078 C16.61701172 3.22705078 15.29701172 3.22705078 13.93701172 3.22705078 C13.93701172 3.88705078 13.93701172 4.54705078 13.93701172 5.22705078 C14.92701172 5.22705078 15.91701172 5.22705078 16.93701172 5.22705078 C17.59701172 5.88705078 18.25701172 6.54705078 18.93701172 7.22705078 C19.26701172 5.24705078 19.59701172 3.26705078 19.93701172 1.22705078 C23.30421559 2.62037652 24.92296412 4.20597939 26.93701172 7.22705078 C27.26701172 5.24705078 27.59701172 3.26705078 27.93701172 1.22705078 C28.59701172 1.22705078 29.25701172 1.22705078 29.93701172 1.22705078 C29.60701172 4.52705078 29.27701172 7.82705078 28.93701172 11.22705078 C28.27701172 11.22705078 27.61701172 11.22705078 26.93701172 11.22705078 C25.22264992 9.26778015 23.55296004 7.26824866 21.93701172 5.22705078 C21.93701172 7.20705078 21.93701172 9.18705078 21.93701172 11.22705078 C18.26290387 12.40276529 14.76771989 12.30071825 10.93701172 12.22705078 C10.60701172 9.25705078 10.27701172 6.28705078 9.93701172 3.22705078 C9.60701172 6.19705078 9.27701172 9.16705078 8.93701172 12.22705078 C7.16693458 12.30819184 5.39579074 12.36630583 3.62451172 12.41455078 C2.63837891 12.44935547 1.65224609 12.48416016 0.63623047 12.52001953 C-2.06298828 12.22705078 -2.06298828 12.22705078 -3.93017578 10.93798828 C-5.06298828 9.22705078 -5.06298828 9.22705078 -4.87548828 5.66455078 C-3.63105261 0.39963064 -3.63105261 0.39963064 0 0 Z " fill="#456687" transform="translate(413.06298828125,56.77294921875)"/>
<path d="M0 0 C2.60527105 -0.10792837 5.20608311 -0.18724878 7.8125 -0.25 C8.55048828 -0.28351562 9.28847656 -0.31703125 10.04882812 -0.3515625 C15.49954311 -0.45021797 15.49954311 -0.45021797 18.0234375 1.8203125 C19.39700483 4.88611479 18.89939139 6.81753816 18 10 C16 12 16 12 12.375 12.125 C11.26125 12.08375 10.1475 12.0425 9 12 C9 9.03 9 6.06 9 3 C8.34 3 7.68 3 7 3 C7.33 5.97 7.66 8.94 8 12 C6.68 12 5.36 12 4 12 C3.67 9.03 3.34 6.06 3 3 C2.67 5.64 2.34 8.28 2 11 C1.34 11 0.68 11 0 11 C-0.33 9.68 -0.66 8.36 -1 7 C-1.66 8.32 -2.32 9.64 -3 11 C-3.66 11 -4.32 11 -5 11 C-5.66 9.35 -6.32 7.7 -7 6 C-7.33 7.65 -7.66 9.3 -8 11 C-8.33 11 -8.66 11 -9 11 C-9 8.03 -9 5.06 -9 2 C-6 3 -6 3 -4.8125 5.0625 C-4.544375 5.701875 -4.27625 6.34125 -4 7 C-2.68 4.69 -1.36 2.38 0 0 Z " fill="#557392" transform="translate(269,57)"/>
<path d="M0 0 C4.62 0 9.24 0 14 0 C14 0.66 14 1.32 14 2 C12.35 2 10.7 2 9 2 C9.01571045 2.87736816 9.0314209 3.75473633 9.04760742 4.65869141 C9.09894376 7.93511952 9.13644997 11.21111598 9.16479492 14.48779297 C9.17981825 15.90192437 9.20024305 17.31600968 9.22631836 18.72998047 C9.26298954 20.77062397 9.27979036 22.81064792 9.29296875 24.8515625 C9.3086792 26.07697754 9.32438965 27.30239258 9.34057617 28.56494141 C8.84297691 33.58373823 7.25839133 36.838408 3.5625 40.25 C-1.01841933 43.37843271 -3.86198599 44.27586245 -9.5 44.25 C-10.6240625 44.25515625 -11.748125 44.2603125 -12.90625 44.265625 C-15.85041743 44.01284295 -17.51695505 43.53364541 -20 42 C-18 41 -18 41 -15.875 41.4375 C-10.85179325 42.42030132 -6.69467797 43.07843143 -2.25 40.25 C-1.5075 39.5075 -0.765 38.765 0 38 C1.11375 36.9790625 1.11375 36.9790625 2.25 35.9375 C5.41770119 32.43040225 5.11812073 29.10468164 5.09765625 24.58203125 C5.09282227 22.70161133 5.09282227 22.70161133 5.08789062 20.78320312 C5.07951172 19.47287109 5.07113281 18.16253906 5.0625 16.8125 C5.05748317 15.47721519 5.05292059 14.14192859 5.04882812 12.80664062 C5.03702695 9.53771527 5.02056297 6.26888009 5 3 C2.525 2.505 2.525 2.505 0 2 C0 1.34 0 0.68 0 0 Z " fill="#B6C3D0" transform="translate(111,16)"/>
<path d="M0 0 C1.29550781 -0.03867187 1.29550781 -0.03867187 2.6171875 -0.078125 C5.57524649 0.30891076 6.91701784 1.29875995 9.125 3.25 C8.795 3.91 8.465 4.57 8.125 5.25 C6.475 4.26 4.825 3.27 3.125 2.25 C3.6303125 3.22582031 4.135625 4.20164063 4.65625 5.20703125 C5.31281656 6.4920258 5.9690492 7.77719101 6.625 9.0625 C6.95886719 9.70509766 7.29273437 10.34769531 7.63671875 11.00976562 C9.12739084 13.94547699 10.125 15.91126517 10.125 19.25 C11.445 19.91 12.765 20.57 14.125 21.25 C8.845 21.25 3.565 21.25 -1.875 21.25 C-1.875 20.59 -1.875 19.93 -1.875 19.25 C-0.555 19.25 0.765 19.25 2.125 19.25 C-1.209954 9.54675536 -1.209954 9.54675536 -6.875 1.25 C-4.43545342 0.03022671 -2.72194151 0.04846187 0 0 Z " fill="#EAEDF1" transform="translate(71.875,37.75)"/>
<path d="M0 0 C2.62697064 -0.22137393 5.00893964 -0.28162025 7.625 -0.1875 C8.33140625 -0.17396484 9.0378125 -0.16042969 9.765625 -0.14648438 C11.51074128 -0.1111104 13.25546608 -0.05730221 15 0 C15.33 0.99 15.66 1.98 16 3 C14.35 3 12.7 3 11 3 C11 5.31 11 7.62 11 10 C12.65 9.67 14.3 9.34 16 9 C16 9.99 16 10.98 16 12 C13.39472895 12.10792837 10.79391689 12.18724878 8.1875 12.25 C7.44951172 12.28351563 6.71152344 12.31703125 5.95117188 12.3515625 C0.49115809 12.45038628 0.49115809 12.45038628 -2.0234375 10.14453125 C-3.31150703 7.31593057 -2.97194507 5.91583522 -2 3 C-1.34 2.01 -0.68 1.02 0 0 Z " fill="#163F69" transform="translate(447,57)"/>
<path d="M0 0 C0 0.66 0 1.32 0 2 C-1.7578125 2.94401042 -3.515625 3.88802083 -5.2734375 4.83203125 C-7.30502365 6.04763493 -7.30502365 6.04763493 -9 9 C-9.72070489 13.86894817 -9.81279759 18.44570145 -7 22.625 C-6.34 23.40875 -5.68 24.1925 -5 25 C-8.04386724 25.08226668 -10.07175348 24.97608217 -13 24 C-14.72795352 23.93197033 -16.45835365 23.91504355 -18.1875 23.9375 C-19.08855469 23.94652344 -19.98960938 23.95554687 -20.91796875 23.96484375 C-21.94857422 23.98224609 -21.94857422 23.98224609 -23 24 C-23 23.01 -23 22.02 -23 21 C-21.35 21 -19.7 21 -18 21 C-17.85304688 20.21496094 -17.70609375 19.42992188 -17.5546875 18.62109375 C-16.09439628 11.78122394 -14.61711876 6.45988827 -9 2 C-3.07969639 -1.5398482 -3.07969639 -1.5398482 0 0 Z " fill="#E2E7EC" transform="translate(58,36)"/>
<path d="M0 0 C3.2578125 -0.29296875 3.2578125 -0.29296875 7.125 -0.1875 C9.04699219 -0.14689453 9.04699219 -0.14689453 11.0078125 -0.10546875 C11.99523437 -0.07066406 12.98265625 -0.03585938 14 0 C14 3.96 14 7.92 14 12 C2.63064782 12.49431966 2.63064782 12.49431966 -0.3671875 10.14453125 C-2 8 -2 8 -2.375 5.4375 C-2 3 -2 3 0 0 Z " fill="#0C3763" transform="translate(137,57)"/>
<path d="M0 0 C6.66666667 0 13.33333333 0 20 0 C20.66 1.65 21.32 3.3 22 5 C22.78375 4.175 23.5675 3.35 24.375 2.5 C27 0 27 0 29 0 C29 3.63 29 7.26 29 11 C28.01 11 27.02 11 26 11 C25.67 10.34 25.34 9.68 25 9 C24.01 9.33 23.02 9.66 22 10 C21.67 8.35 21.34 6.7 21 5 C20.34 5 19.68 5 19 5 C19.33 6.98 19.66 8.96 20 11 C19.34 11 18.68 11 18 11 C17.67 8.36 17.34 5.72 17 3 C16.01 2.67 15.02 2.34 14 2 C14 4.97 14 7.94 14 11 C13.01 11 12.02 11 11 11 C11 8.03 11 5.06 11 2 C9.68 2.99 8.36 3.98 7 5 C7.33 6.98 7.66 8.96 8 11 C7.34 11 6.68 11 6 11 C4.515 8.03 4.515 8.03 3 5 C3.66 4.67 4.32 4.34 5 4 C5 3.34 5 2.68 5 2 C4.34 2 3.68 2 3 2 C2.67 4.64 2.34 7.28 2 10 C1.67 10 1.34 10 1 10 C0.67 6.7 0.34 3.4 0 0 Z " fill="#7990A8" transform="translate(174,40)"/>
<path d="M0 0 C1.27617187 0.02320313 2.55234375 0.04640625 3.8671875 0.0703125 C5.78917969 0.09738281 5.78917969 0.09738281 7.75 0.125 C9.23113281 0.15980469 9.23113281 0.15980469 10.7421875 0.1953125 C10.7421875 0.8553125 10.7421875 1.5153125 10.7421875 2.1953125 C9.4221875 2.1953125 8.1021875 2.1953125 6.7421875 2.1953125 C6.7421875 2.8553125 6.7421875 3.5153125 6.7421875 4.1953125 C9.2171875 5.1853125 9.2171875 5.1853125 11.7421875 6.1953125 C10.8671875 10.0703125 10.8671875 10.0703125 9.7421875 11.1953125 C7.59910854 11.32068991 5.45139864 11.37105614 3.3046875 11.3828125 C2.13035156 11.39699219 0.95601563 11.41117188 -0.25390625 11.42578125 C-3.2578125 11.1953125 -3.2578125 11.1953125 -5.2578125 9.1953125 C-5.5078125 5.6953125 -5.5078125 5.6953125 -5.2578125 2.1953125 C-3.2578125 0.1953125 -3.2578125 0.1953125 0 0 Z " fill="#869BB1" transform="translate(308.2578125,39.8046875)"/>
<path d="M0 0 C0.66 0 1.32 0 2 0 C2 2.97 2 5.94 2 9 C3.98 8.67 5.96 8.34 8 8 C8.33 5.36 8.66 2.72 9 0 C11.31 0 13.62 0 16 0 C16 0.66 16 1.32 16 2 C14.68 1.67 13.36 1.34 12 1 C12 1.99 12 2.98 12 4 C12.99 4 13.98 4 15 4 C15 4.66 15 5.32 15 6 C13.68 6 12.36 6 11 6 C11 6.99 11 7.98 11 9 C12.258125 8.814375 13.51625 8.62875 14.8125 8.4375 C17.82744268 7.99267239 19.00468461 8.00156154 22 9 C22 8.01 22 7.02 22 6 C19.525 5.505 19.525 5.505 17 5 C17.33 3.35 17.66 1.7 18 0 C19.65 0 21.3 0 23 0 C22.67 0.66 22.34 1.32 22 2 C21.34 2 20.68 2 20 2 C19.67 2.66 19.34 3.32 19 4 C21.475 4.495 21.475 4.495 24 5 C23.125 9.875 23.125 9.875 22 11 C20.36527118 11.08700342 18.72685945 11.10701063 17.08984375 11.09765625 C16.10048828 11.09443359 15.11113281 11.09121094 14.09179688 11.08789062 C13.05087891 11.07951172 12.00996094 11.07113281 10.9375 11.0625 C9.89271484 11.05798828 8.84792969 11.05347656 7.77148438 11.04882812 C5.18096546 11.03699927 2.59047578 11.01906319 0 11 C0 7.37 0 3.74 0 0 Z " fill="#7D94AB" transform="translate(181,58)"/>
<path d="M0 0 C1.98 0.99 1.98 0.99 4 2 C4 2.66 4 3.32 4 4 C4.66 4 5.32 4 6 4 C6.33 2.68 6.66 1.36 7 0 C11.62 0 16.24 0 21 0 C21 3.63 21 7.26 21 11 C18.525 10.505 18.525 10.505 16 10 C15.67 10.33 15.34 10.66 15 11 C13.33382885 11.04063832 11.66611905 11.042721 10 11 C9.67 10.34 9.34 9.68 9 9 C10.65 9 12.3 9 14 9 C14 8.34 14 7.68 14 7 C12.7934375 6.566875 12.7934375 6.566875 11.5625 6.125 C9 5 9 5 8 3 C7.34 5.64 6.68 8.28 6 11 C5.01 11 4.02 11 3 11 C2.87625 9.9275 2.7525 8.855 2.625 7.75 C2.10356064 4.62136385 1.59911746 2.66519576 0 0 Z " fill="#6B85A0" transform="translate(281,40)"/>
<path d="M0 0 C0.90492188 0.02320313 1.80984375 0.04640625 2.7421875 0.0703125 C4.10730469 0.09738281 4.10730469 0.09738281 5.5 0.125 C6.19867188 0.14820313 6.89734375 0.17140625 7.6171875 0.1953125 C7.6171875 1.5153125 7.6171875 2.8353125 7.6171875 4.1953125 C7.6378125 5.2265625 7.6584375 6.2578125 7.6796875 7.3203125 C7.6171875 10.1953125 7.6171875 10.1953125 6.6171875 12.1953125 C-0.78537959 12.68072674 -0.78537959 12.68072674 -3.3828125 10.5703125 C-4.64235417 7.57890102 -4.73234208 5.41098466 -4.3828125 2.1953125 C-2.3828125 0.1953125 -2.3828125 0.1953125 0 0 Z " fill="#113B66" transform="translate(306.3828125,56.8046875)"/>
<path d="M0 0 C1.66611905 -0.042721 3.33382885 -0.04063832 5 0 C6 1 6 1 6.11352539 4.05102539 C6.11336634 5.39991271 6.10767612 6.74880614 6.09765625 8.09765625 C6.0962413 8.80651474 6.09482635 9.51537323 6.09336853 10.24571228 C6.08775443 12.51801712 6.07519963 14.79022475 6.0625 17.0625 C6.05748681 18.59960796 6.05292359 20.13671745 6.04882812 21.67382812 C6.03778042 25.44925642 6.02050641 29.22461171 6 33 C5.67 33 5.34 33 5 33 C5 31.02 5 29.04 5 27 C3.35 27 1.7 27 0 27 C-0.495 24.525 -0.495 24.525 -1 22 C-6.27913453 19.91613111 -11.39538469 19.42089996 -17 19 C-17 18.67 -17 18.34 -17 18 C-15.4221875 17.7834375 -15.4221875 17.7834375 -13.8125 17.5625 C-10.17620053 17.11546736 -10.17620053 17.11546736 -7.4375 16.25 C-2.938752 15.78858995 0.38563777 18.59042518 4 21 C4 14.4 4 7.8 4 1 C2.68 0.67 1.36 0.34 0 0 Z " fill="#49698A" transform="translate(80,18)"/>
<path d="M0 0 C7.3028169 -0.35915493 7.3028169 -0.35915493 10.0625 1.0625 C11.59987081 4.23973301 10.8466463 6.67388953 10 10 C6.3558226 12.4294516 4.28758728 12.16179575 0 12 C0 8.04 0 4.08 0 0 Z " fill="#9AACBE" transform="translate(135,39)"/>
<path d="M0 0 C1.670625 0.061875 1.670625 0.061875 3.375 0.125 C3.705 0.785 4.035 1.445 4.375 2.125 C3.405625 2.104375 2.43625 2.08375 1.4375 2.0625 C-1.49965895 1.76881501 -1.49965895 1.76881501 -2.625 3.125 C-2.66563832 4.79117115 -2.667721 6.45888095 -2.625 8.125 C-0.975 8.455 0.675 8.785 2.375 9.125 C2.375 8.135 2.375 7.145 2.375 6.125 C3.365 6.125 4.355 6.125 5.375 6.125 C5.705 4.145 6.035 2.165 6.375 0.125 C8.685 0.125 10.995 0.125 13.375 0.125 C13.375 0.785 13.375 1.445 13.375 2.125 C12.055 2.125 10.735 2.125 9.375 2.125 C9.045 2.785 8.715 3.445 8.375 4.125 C9.695 4.125 11.015 4.125 12.375 4.125 C12.705 6.435 13.035 8.745 13.375 11.125 C10.77021117 11.2059313 8.16793347 11.26545434 5.5625 11.3125 C4.45551758 11.35020508 4.45551758 11.35020508 3.32617188 11.38867188 C-2.11568912 11.46254329 -2.11568912 11.46254329 -4.6171875 9.8046875 C-6.17770266 7.20382891 -5.93944514 5.08078428 -5.625 2.125 C-3.625 0.125 -3.625 0.125 0 0 Z " fill="#416285" transform="translate(357.625,57.875)"/>
<path d="M0 0 C4.51617599 -0.07654536 8.59085217 -0.10228696 13 1 C13 2.32 13 3.64 13 5 C14.32 5.33 15.64 5.66 17 6 C17 4.35 17 2.7 17 1 C17.66 1 18.32 1 19 1 C19 4.63 19 8.26 19 12 C18.34 12 17.68 12 17 12 C17 10.35 17 8.7 17 7 C15.68 7 14.36 7 13 7 C13 8.65 13 10.3 13 12 C12.01 12 11.02 12 10 12 C9.67 9.36 9.34 6.72 9 4 C8.54625 4.495 8.0925 4.99 7.625 5.5 C6 7 6 7 4 7 C4 6.34 4 5.68 4 5 C4.66 4.67 5.32 4.34 6 4 C6 3.34 6 2.68 6 2 C5.01 1.67 4.02 1.34 3 1 C3.33 4.63 3.66 8.26 4 12 C2.68 12 1.36 12 0 12 C0 8.04 0 4.08 0 0 Z " fill="#90A3B7" transform="translate(260,39)"/>
<path d="M0 0 C1.7325 0.1546875 1.7325 0.1546875 3.5 0.3125 C5.5 3.3125 5.5 3.3125 5.25 6.375 C4.5 9.3125 4.5 9.3125 2.5 11.3125 C-0.5 11.625 -0.5 11.625 -3.5 11.3125 C-5.80163882 7.86004176 -5.84490322 6.36511287 -5.5 2.3125 C-3.5 0.3125 -3.5 0.3125 0 0 Z " fill="#99ABBD" transform="translate(381.5,57.6875)"/>
<path d="M0 0 C1.27875 -0.061875 2.5575 -0.12375 3.875 -0.1875 C4.95394531 -0.23970703 4.95394531 -0.23970703 6.0546875 -0.29296875 C6.69664062 -0.19628906 7.33859375 -0.09960938 8 0 C10 3 10 3 9.75 6.0625 C9 9 9 9 7 11 C3.375 11.125 3.375 11.125 0 11 C0 7.37 0 3.74 0 0 Z " fill="#8CA0B5" transform="translate(278,58)"/>
<path d="M0 0 C2.475 0.99 2.475 0.99 5 2 C5 2.99 5 3.98 5 5 C6.65 5 8.3 5 10 5 C10.28875 6.2375 10.5775 7.475 10.875 8.75 C11.61334794 11.72448742 12.44474933 14.333856 14 17 C13.34 17.99 12.68 18.98 12 20 C12 19.01 12 18.02 12 17 C10.35 17 8.7 17 7 17 C5.82592979 14.73272667 4.66060261 12.46165376 3.5 10.1875 C3.16613281 9.54490234 2.83226563 8.90230469 2.48828125 8.24023438 C0.99760916 5.30452301 0 3.33873483 0 0 Z " fill="#0E3964" transform="translate(75,40)"/>
<path d="M0 0 C3 0.25 3 0.25 5 2.25 C5.25 5.75 5.25 5.75 5 9.25 C3 11.25 3 11.25 0 11.5625 C-0.99 11.459375 -1.98 11.35625 -3 11.25 C-5.30163882 7.79754176 -5.34490322 6.30261287 -5 2.25 C-3 0.25 -3 0.25 0 0 Z " fill="#8EA1B6" transform="translate(242,39.75)"/>
<path d="M0 0 C7.31088083 -0.61658031 7.31088083 -0.61658031 11 0 C13.52724468 2.13637845 14.44669538 4.00051522 16 7 C16 4.69 16 2.38 16 0 C16.99 0.33 17.98 0.66 19 1 C18.67 4.3 18.34 7.6 18 11 C17.34 11 16.68 11 16 11 C14.7109375 9.46875 14.7109375 9.46875 13.375 7.5 C12.92898437 6.8503125 12.48296875 6.200625 12.0234375 5.53125 C11.51683594 4.77328125 11.51683594 4.77328125 11 4 C11 6.31 11 8.62 11 11 C10.34 11 9.68 11 9 11 C9 8.03 9 5.06 9 2 C6.03 1.505 6.03 1.505 3 1 C3 2.32 3 3.64 3 5 C3.99 4.67 4.98 4.34 6 4 C5.67 4.99 5.34 5.98 5 7 C4.34 6.67 3.68 6.34 3 6 C3 7.32 3 8.64 3 10 C4.32 9.67 5.64 9.34 7 9 C7 9.66 7 10.32 7 11 C4.69 11 2.38 11 0 11 C0 7.37 0 3.74 0 0 Z " fill="#8CA0B5" transform="translate(205,40)"/>
<path d="M0 0 C2.31 0 4.62 0 7 0 C7 3.3 7 6.6 7 10 C6.34 10 5.68 10 5 10 C4.67 7.36 4.34 4.72 4 2 C3.67 4.97 3.34 7.94 3 11 C1.22992286 11.08114106 -0.54122098 11.13925505 -2.3125 11.1875 C-3.29863281 11.22230469 -4.28476562 11.25710937 -5.30078125 11.29296875 C-8 11 -8 11 -9.875 9.71875 C-11.75095925 6.85270115 -10.66405148 4.19952076 -10 1 C-9.34 1.33 -8.68 1.66 -8 2 C-8.33 3.98 -8.66 5.96 -9 8 C-6.36 8 -3.72 8 -1 8 C-0.67 5.36 -0.34 2.72 0 0 Z " fill="#7D94AB" transform="translate(419,58)"/>
<path d="M0 0 C1.32 0 2.64 0 4 0 C4 3.3 4 6.6 4 10 C4.66 10 5.32 10 6 10 C6.66 7.69 7.32 5.38 8 3 C9.32 3 10.64 3 12 3 C15 8.75 15 8.75 15 11 C14.34 11 13.68 11 13 11 C13 10.34 13 9.68 13 9 C11.35 9 9.7 9 8 9 C8 9.99 8 10.98 8 12 C5.36 12 2.72 12 0 12 C0 8.04 0 4.08 0 0 Z " fill="#637F9B" transform="translate(154,57)"/>
<path d="M0 0 C2.97 0 5.94 0 9 0 C9 3.63 9 7.26 9 11 C6.03 11 3.06 11 0 11 C0 7.37 0 3.74 0 0 Z " fill="#163F69" transform="translate(147,40)"/>
<path d="M0 0 C4.62 0 9.24 0 14 0 C14 0.66 14 1.32 14 2 C12.35 2.33 10.7 2.66 9 3 C8.98018066 3.83772949 8.96036133 4.67545898 8.93994141 5.53857422 C8.86189388 8.64365834 8.77520365 11.74834539 8.68261719 14.85302734 C8.62545964 16.85886971 8.57831404 18.86498918 8.53125 20.87109375 C8.47324219 22.75634766 8.47324219 22.75634766 8.4140625 24.6796875 C8.3826416 25.84226074 8.3512207 27.00483398 8.31884766 28.20263672 C8 31 8 31 6 33 C5.67 23.1 5.34 13.2 5 3 C3.35 2.67 1.7 2.34 0 2 C0 1.34 0 0.68 0 0 Z " fill="#E5EAEE" transform="translate(111,16)"/>
<path d="M0 0 C2.31 0 4.62 0 7 0 C7 0.66 7 1.32 7 2 C5.35 1.67 3.7 1.34 2 1 C2 1.99 2 2.98 2 4 C3.65 4.33 5.3 4.66 7 5 C7.350625 4.34 7.70125 3.68 8.0625 3 C10 1 10 1 13.6875 0.75 C14.780625 0.8325 15.87375 0.915 17 1 C17.33 1.66 17.66 2.32 18 3 C16.02 3 14.04 3 12 3 C12 4.98 12 6.96 12 9 C13.65 9.33 15.3 9.66 17 10 C17 10.33 17 10.66 17 11 C11.33333333 11 5.66666667 11 0 11 C0.33 10.34 0.66 9.68 1 9 C2.98 9.495 2.98 9.495 5 10 C5 9.01 5 8.02 5 7 C3.35 6.67 1.7 6.34 0 6 C0 4.02 0 2.04 0 0 Z " fill="#8298AF" transform="translate(228,57)"/>
<path d="M0 0 C2.1640625 -0.29296875 2.1640625 -0.29296875 4.625 -0.1875 C5.44226563 -0.16042969 6.25953125 -0.13335937 7.1015625 -0.10546875 C8.04128906 -0.05326172 8.04128906 -0.05326172 9 0 C8.67 0.99 8.34 1.98 8 3 C7.67 2.67 7.34 2.34 7 2 C5.33382885 1.95936168 3.66611905 1.957279 2 2 C1.34 3.98 0.68 5.96 0 8 C3.63 8.33 7.26 8.66 11 9 C11 6.36 11 3.72 11 1 C11.66 1 12.32 1 13 1 C13.33 4.63 13.66 8.26 14 12 C12.08458862 12.10841951 10.16740227 12.18578079 8.25 12.25 C6.64898437 12.31960937 6.64898437 12.31960937 5.015625 12.390625 C2 12 2 12 -0.3671875 10.14453125 C-2 8 -2 8 -2.375 5.4375 C-2 3 -2 3 0 0 Z " fill="#7F95AC" transform="translate(137,57)"/>
<path d="M0 0 C0.66 0 1.32 0 2 0 C2 2.97 2 5.94 2 9 C3.98 8.67 5.96 8.34 8 8 C8.33 5.36 8.66 2.72 9 0 C11.31 0 13.62 0 16 0 C16 0.66 16 1.32 16 2 C14.35 1.67 12.7 1.34 11 1 C11 3.64 11 6.28 11 9 C12.65 8.67 14.3 8.34 16 8 C16 8.99 16 9.98 16 11 C10.72 11 5.44 11 0 11 C0 7.37 0 3.74 0 0 Z " fill="#869BB1" transform="translate(335,58)"/>
<path d="M0 0 C2.01822917 0.06510417 4.03645833 0.13020833 6.0546875 0.1953125 C6.0546875 0.5253125 6.0546875 0.8553125 6.0546875 1.1953125 C3.7446875 1.1953125 1.4346875 1.1953125 -0.9453125 1.1953125 C-0.9453125 4.1653125 -0.9453125 7.1353125 -0.9453125 10.1953125 C-1.2753125 9.2053125 -1.6053125 8.2153125 -1.9453125 7.1953125 C-2.9353125 7.1953125 -3.9253125 7.1953125 -4.9453125 7.1953125 C-4.9453125 8.1853125 -4.9453125 9.1753125 -4.9453125 10.1953125 C-6.61143155 10.2380335 -8.27914135 10.23595082 -9.9453125 10.1953125 C-10.9453125 9.1953125 -10.9453125 9.1953125 -11.1328125 6.7578125 C-10.9453125 4.1953125 -10.9453125 4.1953125 -8.9453125 2.1953125 C-7.27864583 2.1953125 -5.61197917 2.1953125 -3.9453125 2.1953125 C-1.9453125 0.1953125 -1.9453125 0.1953125 0 0 Z " fill="#133C67" transform="translate(364.9453125,56.8046875)"/>
<path d="M0 0 C-0.54269531 0.23074219 -1.08539063 0.46148437 -1.64453125 0.69921875 C-5.03207274 2.24344938 -7.53980702 3.46790187 -10 6.3125 C-11.32273531 9.86735115 -11.52918182 12.22957952 -11 16 C-9.5159576 18.21060483 -7.79987532 20.02013715 -6 22 C-6 22.99 -6 23.98 -6 25 C-7.98 24.67 -9.96 24.34 -12 24 C-11.34 23.34 -10.68 22.68 -10 22 C-10.66 21.38125 -11.32 20.7625 -12 20.125 C-14.78519224 15.77313713 -14.96349162 12.04171907 -14 7 C-10.43196448 2.20863801 -6.05621803 -1.86936117 0 0 Z " fill="#3C5F82" transform="translate(62,38)"/>
<path d="M0 0 C2.31 0 4.62 0 7 0 C7.97001682 3.39505887 8 6.47064557 8 10 C7.01 9.67 6.02 9.34 5 9 C5 8.34 5 7.68 5 7 C4.34 7 3.68 7 3 7 C3 7.99 3 8.98 3 10 C2.01 10 1.02 10 0 10 C0 6.7 0 3.4 0 0 Z " fill="#66819D" transform="translate(171,58)"/>
<path d="M0 0 C0 0.66 0 1.32 0 2 C0.66 2 1.32 2 2 2 C2 2.66 2 3.32 2 4 C3.65 4.33 5.3 4.66 7 5 C7 5.99 7 6.98 7 8 C5.18757948 8.02687279 3.37504767 8.04633715 1.5625 8.0625 C0.55316406 8.07410156 -0.45617187 8.08570313 -1.49609375 8.09765625 C-4 8 -4 8 -5 7 C-5.04080783 5.00041636 -5.04254356 2.99954746 -5 1 C-3 0 -3 0 0 0 Z " fill="#083460" transform="translate(310,41)"/>
<path d="M0 0 C13.2 0 26.4 0 40 0 C40 2.97 40 5.94 40 9 C39.01 9 38.02 9 37 9 C36.505 6.03 36.505 6.03 36 3 C36.66 3 37.32 3 38 3 C38.33 2.34 38.66 1.68 39 1 C26.13 1.33 13.26 1.66 0 2 C0 1.34 0 0.68 0 0 Z " fill="#BCC8D4" transform="translate(7,16)"/>
<path d="M0 0 C2.31 0 4.62 0 7 0 C7.33 0.99 7.66 1.98 8 3 C6.35 3 4.7 3 3 3 C3 5.31 3 7.62 3 10 C4.65 9.67 6.3 9.34 8 9 C8 9.99 8 10.98 8 12 C5.36 12 2.72 12 0 12 C0 8.04 0 4.08 0 0 Z " fill="#66819C" transform="translate(455,57)"/>
<path d="M0 0 C2.64 0.33 5.28 0.66 8 1 C7.01 1.495 7.01 1.495 6 2 C6.99 3.485 6.99 3.485 8 5 C8.99 6.485 8.99 6.485 10 8 C9.67 9.32 9.34 10.64 9 12 C6.03 12 3.06 12 0 12 C0.33 11.34 0.66 10.68 1 10 C1.66 10.33 2.32 10.66 3 11 C3 7.7 3 4.4 3 1 C2.34 1 1.68 1 1 1 C0.67 1.66 0.34 2.32 0 3 C0 2.01 0 1.02 0 0 Z " fill="#1A426C" transform="translate(254,57)"/>
<path d="M0 0 C0 3.63 0 7.26 0 11 C-1.32 11 -2.64 11 -4 11 C-4.2475 10.21625 -4.495 9.4325 -4.75 8.625 C-6.15389099 5.67682892 -7.00675737 5.0975223 -10 4 C-9.67 3.01 -9.34 2.02 -9 1 C-5.8035914 -0.06546953 -3.34252724 -0.07427838 0 0 Z " fill="#52708F" transform="translate(302,40)"/>
<path d="M0 0 C5.43823877 0.49438534 9.14117202 2.14117202 13 6 C12.625 8.625 12.625 8.625 12 11 C11.01 11 10.02 11 9 11 C8.67 9.35 8.34 7.7 8 6 C2.72086547 3.91613111 -2.39538469 3.42089996 -8 3 C-8 2.67 -8 2.34 -8 2 C-6.865625 1.855625 -5.73125 1.71125 -4.5625 1.5625 C-1.19222799 1.38828522 -1.19222799 1.38828522 0 0 Z " fill="#A0B0C2" transform="translate(71,34)"/>
<path d="M0 0 C2.97126708 2.71077243 3.88243734 5.13151386 5 9 C3.80375 9.28875 2.6075 9.5775 1.375 9.875 C-2.14726836 10.7524334 -5.57201821 11.80020637 -9 13 C-8.67 12.01 -8.34 11.02 -8 10 C-7.01 9.67 -6.02 9.34 -5 9 C-3.54355243 6.91187542 -3.54355243 6.91187542 -2.3125 4.4375 C-1.87550781 3.61121094 -1.43851563 2.78492188 -0.98828125 1.93359375 C-0.66214844 1.29550781 -0.33601563 0.65742188 0 0 Z " fill="#2C5177" transform="translate(59,25)"/>
<path d="M0 0 C0 0.66 0 1.32 0 2 C0.99 2 1.98 2 3 2 C3 3.98 3 5.96 3 8 C0.03 7.67 -2.94 7.34 -6 7 C-6 5.02 -6 3.04 -6 1 C-4 0 -4 0 0 0 Z " fill="#083360" transform="translate(416,59)"/>
<path d="M0 0 C0.66 0 1.32 0 2 0 C2 3.3 2 6.6 2 10 C1.34 10 0.68 10 0 10 C-0.33 8.68 -0.66 7.36 -1 6 C-1.66 7.32 -2.32 8.64 -3 10 C-3.66 10 -4.32 10 -5 10 C-5.66 8.35 -6.32 6.7 -7 5 C-7.33 6.65 -7.66 8.3 -8 10 C-8.33 10 -8.66 10 -9 10 C-9 7.03 -9 4.06 -9 1 C-6 2 -6 2 -4.8125 4.0625 C-4.544375 4.701875 -4.27625 5.34125 -4 6 C-3.38125 5.01 -2.7625 4.02 -2.125 3 C-1.42375 2.01 -0.7225 1.02 0 0 Z " fill="#95A7BA" transform="translate(269,58)"/>
<path d="M0 0 C2.33944736 0.28730055 4.6739143 0.61936779 7 1 C7 3.31 7 5.62 7 8 C4.36 7.67 1.72 7.34 -1 7 C-1.04254356 5.00045254 -1.04080783 2.99958364 -1 1 C-0.67 0.67 -0.34 0.34 0 0 Z " fill="#07335F" transform="translate(240,59)"/>
<path d="M0 0 C0.66 0 1.32 0 2 0 C2 2.97 2 5.94 2 9 C2.969375 8.814375 3.93875 8.62875 4.9375 8.4375 C6.4534375 8.2209375 6.4534375 8.2209375 8 8 C8.33 8.33 8.66 8.66 9 9 C11.18292774 9.23481693 13.37203174 9.41363323 15.5625 9.5625 C16.76003906 9.64628906 17.95757812 9.73007813 19.19140625 9.81640625 C20.11824219 9.87699219 21.04507813 9.93757813 22 10 C22 10.33 22 10.66 22 11 C14.74 11 7.48 11 0 11 C0 7.37 0 3.74 0 0 Z " fill="#6E88A2" transform="translate(181,58)"/>
<path d="M0 0 C1.4540625 0.0309375 1.4540625 0.0309375 2.9375 0.0625 C2.6075 0.7225 2.2775 1.3825 1.9375 2.0625 C0.6175 1.7325 -0.7025 1.4025 -2.0625 1.0625 C-2.0625 2.0525 -2.0625 3.0425 -2.0625 4.0625 C-0.4125 4.3925 1.2375 4.7225 2.9375 5.0625 C3.5625 6.875 3.5625 6.875 3.9375 9.0625 C2.9475 10.5475 2.9475 10.5475 1.9375 12.0625 C-1.1875 12.25 -1.1875 12.25 -4.0625 12.0625 C-3.7325 11.0725 -3.4025 10.0825 -3.0625 9.0625 C-1.7425 9.0625 -0.4225 9.0625 0.9375 9.0625 C1.2675 8.4025 1.5975 7.7425 1.9375 7.0625 C0.2875 6.7325 -1.3625 6.4025 -3.0625 6.0625 C-3.44468767 4.40635343 -3.77645102 2.73792976 -4.0625 1.0625 C-3.0625 0.0625 -3.0625 0.0625 0 0 Z " fill="#869BB1" transform="translate(403.0625,56.9375)"/>
<path d="M0 0 C2.31 0 4.62 0 7 0 C7 0.66 7 1.32 7 2 C5.68 2 4.36 2 3 2 C3 2.66 3 3.32 3 4 C3.99 4 4.98 4 6 4 C6 4.66 6 5.32 6 6 C5.01 6 4.02 6 3 6 C3 7.65 3 9.3 3 11 C1.68 11 0.36 11 -1 11 C-0.67 7.37 -0.34 3.74 0 0 Z " fill="#728BA4" transform="translate(388,58)"/>
<path d="M0 0 C4.875 0.875 4.875 0.875 6 2 C5.71269945 4.33944736 5.38063221 6.6739143 5 9 C3.35 9 1.7 9 0 9 C0 6.03 0 3.06 0 0 Z " fill="#083360" transform="translate(138,40)"/>
<path d="M0 0 C1.98 0 3.96 0 6 0 C6 1.32 6 2.64 6 4 C7.32 4.33 8.64 4.66 10 5 C10 5.99 10 6.98 10 8 C6.37 8 2.74 8 -1 8 C-1 7.01 -1 6.02 -1 5 C0.32 5 1.64 5 3 5 C3 4.34 3 3.68 3 3 C2.01 3 1.02 3 0 3 C0 2.01 0 1.02 0 0 Z " fill="#163F69" transform="translate(193,59)"/>
<path d="M0 0 C1.670625 0.061875 1.670625 0.061875 3.375 0.125 C3.705 0.785 4.035 1.445 4.375 2.125 C3.405625 2.104375 2.43625 2.08375 1.4375 2.0625 C-1.49965895 1.76881501 -1.49965895 1.76881501 -2.625 3.125 C-2.66563832 4.79117115 -2.667721 6.45888095 -2.625 8.125 C-0.975 8.455 0.675 8.785 2.375 9.125 C2.375 8.135 2.375 7.145 2.375 6.125 C3.035 6.125 3.695 6.125 4.375 6.125 C4.045 7.775 3.715 9.425 3.375 11.125 C-2.025 11.485 -2.025 11.485 -4.5 10 C-6.13031294 7.28281176 -5.95515665 5.22847254 -5.625 2.125 C-3.625 0.125 -3.625 0.125 0 0 Z " fill="#869BB1" transform="translate(357.625,57.875)"/>
<path d="M0 0 C0.33 0 0.66 0 1 0 C1.33730842 1.43657245 1.66969591 2.87430093 2 4.3125 C2.185625 5.11300781 2.37125 5.91351563 2.5625 6.73828125 C3 9 3 9 3 12 C-0.3 12 -3.6 12 -7 12 C-7 11.01 -7 10.02 -7 9 C-5.35 9 -3.7 9 -2 9 C-1.34 6.03 -0.68 3.06 0 0 Z " fill="#647F9B" transform="translate(42,48)"/>
<path d="M0 0 C0.66 0 1.32 0 2 0 C2 3.63 2 7.26 2 11 C1.01 11 0.02 11 -1 11 C-3.1875 8.5 -3.1875 8.5 -5 6 C-3.38405168 3.95880212 -1.7143618 1.95927063 0 0 Z " fill="#748CA5" transform="translate(201,40)"/>
<path d="M0 0 C1.875 0.5625 1.875 0.5625 4 2 C5.25 5.625 5.25 5.625 6 9 C5.34 9 4.68 9 4 9 C4 8.34 4 7.68 4 7 C2.35 7 0.7 7 -1 7 C-1 7.66 -1 8.32 -1 9 C-1.66 9 -2.32 9 -3 9 C-2.44271087 5.65626525 -1.64826111 2.96687001 0 0 Z " fill="#607C98" transform="translate(163,59)"/>
<path d="M0 0 C2.97 0.495 2.97 0.495 6 1 C6 3.97 6 6.94 6 10 C3.03 9.505 3.03 9.505 0 9 C0 7.68 0 6.36 0 5 C0.66 4.67 1.32 4.34 2 4 C1.34 4 0.68 4 0 4 C0 2.68 0 1.36 0 0 Z " fill="#123C67" transform="translate(208,41)"/>
<path d="M0 0 C2.125 0.375 2.125 0.375 4 1 C4 3.31 4 5.62 4 8 C2.125 8.625 2.125 8.625 0 9 C-2 7 -2 7 -2.25 4.5 C-2 2 -2 2 0 0 Z " fill="#0C3762" transform="translate(241,41)"/>
<path d="M0 0 C1.32 0 2.64 0 4 0 C4 2.97 4 5.94 4 9 C4.99 9.33 5.98 9.66 7 10 C5.68 10 4.36 10 3 10 C3 7.03 3 4.06 3 1 C2.34 1 1.68 1 1 1 C1 4.63 1 8.26 1 12 C-0.32 11.67 -1.64 11.34 -3 11 C-2.34 11 -1.68 11 -1 11 C-1.391875 10.29875 -1.78375 9.5975 -2.1875 8.875 C-3 6 -3 6 -1.625 2.6875 C-1.08875 1.800625 -0.5525 0.91375 0 0 Z " fill="#163F69" transform="translate(180,57)"/>
<path d="M0 0 C1.67542976 0.28604898 3.34385343 0.61781233 5 1 C5 2.98 5 4.96 5 7 C3.34385343 7.38218767 1.67542976 7.71395102 0 8 C-1 7 -1 7 -1.125 4 C-1 1 -1 1 0 0 Z " fill="#093461" transform="translate(379,59)"/>
<path d="M0 0 C1.67542976 0.28604898 3.34385343 0.61781233 5 1 C5 2.98 5 4.96 5 7 C3.34385343 7.38218767 1.67542976 7.71395102 0 8 C-1 7 -1 7 -1.125 4 C-1 1 -1 1 0 0 Z " fill="#083460" transform="translate(317,59)"/>
<path d="M0 0 C3.76687864 1.88343932 4.79421646 2.69132469 7 6 C7.33 4.02 7.66 2.04 8 0 C8.66 0 9.32 0 10 0 C9.67 3.3 9.34 6.6 9 10 C8.34 10 7.68 10 7 10 C5.2856382 8.04072937 3.61594832 6.04119788 2 4 C2 5.98 2 7.96 2 10 C1.34 10 0.68 10 0 10 C0 6.7 0 3.4 0 0 Z " fill="#9CADBF" transform="translate(433,58)"/>
<path d="M0 0 C1.32 0 2.64 0 4 0 C4 1.32 4 2.64 4 4 C5.32 4 6.64 4 8 4 C8 3.01 8 2.02 8 1 C8.66 1 9.32 1 10 1 C10 4.3 10 7.6 10 11 C9.34 11 8.68 11 8 11 C8 9.68 8 8.36 8 7 C6.35 7 4.7 7 3 7 C3 5.02 3 3.04 3 1 C2.01 0.67 1.02 0.34 0 0 Z " fill="#738BA5" transform="translate(247,57)"/>
<path d="M0 0 C2.31 0 4.62 0 7 0 C6.67 0.66 6.34 1.32 6 2 C4.68 1.67 3.36 1.34 2 1 C2 2.32 2 3.64 2 5 C3.32 4.67 4.64 4.34 6 4 C5.67 4.99 5.34 5.98 5 7 C4.01 6.67 3.02 6.34 2 6 C2 7.32 2 8.64 2 10 C3.98 9.67 5.96 9.34 8 9 C8 9.66 8 10.32 8 11 C5.36 11 2.72 11 0 11 C0 7.37 0 3.74 0 0 Z " fill="#9FB0C1" transform="translate(211,57)"/>
<path d="M0 0 C1.06546953 3.1964086 1.07427838 5.65747276 1 9 C-0.98 9.33 -2.96 9.66 -5 10 C-5 8.68 -5 7.36 -5 6 C-4.01 5.67 -3.02 5.34 -2 5 C-2.99 5 -3.98 5 -5 5 C-5 3.68 -5 2.36 -5 1 C-3.35 0.67 -1.7 0.34 0 0 Z " fill="#214870" transform="translate(218,57)"/>
<path d="M0 0 C1.21816406 0.03480469 1.21816406 0.03480469 2.4609375 0.0703125 C3.68683594 0.09738281 3.68683594 0.09738281 4.9375 0.125 C5.87722656 0.15980469 5.87722656 0.15980469 6.8359375 0.1953125 C6.8359375 0.8553125 6.8359375 1.5153125 6.8359375 2.1953125 C5.7015625 2.1746875 4.5671875 2.1540625 3.3984375 2.1328125 C0.02018076 1.77953773 0.02018076 1.77953773 -1.1640625 3.1953125 C-1.20470082 4.86148365 -1.2067835 6.52919345 -1.1640625 8.1953125 C1.1459375 8.8553125 3.4559375 9.5153125 5.8359375 10.1953125 C5.8359375 10.5253125 5.8359375 10.8553125 5.8359375 11.1953125 C4.5571875 11.2571875 3.2784375 11.3190625 1.9609375 11.3828125 C1.24164063 11.41761719 0.52234375 11.45242187 -0.21875 11.48828125 C-0.86070312 11.39160156 -1.50265625 11.29492188 -2.1640625 11.1953125 C-4.46570132 7.74285426 -4.50896572 6.24792537 -4.1640625 2.1953125 C-2.1640625 0.1953125 -2.1640625 0.1953125 0 0 Z " fill="#96A9BB" transform="translate(306.1640625,56.8046875)"/>
<path d="M0 0 C2.31 0 4.62 0 7 0 C7 0.66 7 1.32 7 2 C5.68 1.67 4.36 1.34 3 1 C3 2.32 3 3.64 3 5 C3.99 5.33 4.98 5.66 6 6 C5.01 6 4.02 6 3 6 C3 7.32 3 8.64 3 10 C4.65 9.67 6.3 9.34 8 9 C7.67 9.66 7.34 10.32 7 11 C4.69 11 2.38 11 0 11 C0 7.37 0 3.74 0 0 Z " fill="#95A8BB" transform="translate(147,40)"/>
<path d="M0 0 C1.98 0 3.96 0 6 0 C6.33 1.65 6.66 3.3 7 5 C6.01 5 5.02 5 4 5 C3.67 4.01 3.34 3.02 3 2 C3 4.97 3 7.94 3 11 C2.01 11 1.02 11 0 11 C0 7.37 0 3.74 0 0 Z " fill="#8CA0B5" transform="translate(156,40)"/>
<path d="M0 0 C0.66 0 1.32 0 2 0 C2 4.95 2 9.9 2 15 C1.34 15 0.68 15 0 15 C0 13.02 0 11.04 0 9 C-0.66 9 -1.32 9 -2 9 C-1.41196203 5.97580475 -0.77321882 2.98241547 0 0 Z " fill="#CFD8E0" transform="translate(40,30)"/>
<path d="M0 0 C1.98 0 3.96 0 6 0 C6.75241109 3.65456815 7.40049704 7.31733897 8 11 C7.34 11 6.68 11 6 11 C4.515 8.03 4.515 8.03 3 5 C3.66 4.67 4.32 4.34 5 4 C5 3.34 5 2.68 5 2 C4.34 2 3.68 2 3 2 C2.67 4.64 2.34 7.28 2 10 C1.67 10 1.34 10 1 10 C0.67 6.7 0.34 3.4 0 0 Z " fill="#ADBBCA" transform="translate(174,40)"/>
<path d="M0 0 C2.64 0 5.28 0 8 0 C8 0.66 8 1.32 8 2 C7.01 2 6.02 2 5 2 C5 4.97 5 7.94 5 11 C4.01 10.67 3.02 10.34 2 10 C2.33 7.36 2.66 4.72 3 2 C2.01 2 1.02 2 0 2 C0 1.34 0 0.68 0 0 Z " fill="#93A6B9" transform="translate(225,40)"/>
<path d="M0 0 C1.25 1.5625 1.25 1.5625 2 4 C1.05212419 6.59956359 -0.23020184 8.87289243 -2 11 C-2.99 11.33 -3.98 11.66 -5 12 C-4.42365861 7.24518354 -2.44931479 4.02951788 0 0 Z " fill="#D7DEE5" transform="translate(56,24)"/>
<path d="M0 0 C2.31 0 4.62 0 7 0 C7 1.32 7 2.64 7 4 C4.04335481 5.4783226 1.25770263 5.06032783 -2 5 C-1.34 4.67 -0.68 4.34 0 4 C0 2.68 0 1.36 0 0 Z " fill="#35597D" transform="translate(426,64)"/>
<path d="M0 0 C0.33 0.66 0.66 1.32 1 2 C1.66 2 2.32 2 3 2 C3 4.64 3 7.28 3 10 C2.01 10.33 1.02 10.66 0 11 C0 9.35 0 7.7 0 6 C-2.475 5.01 -2.475 5.01 -5 4 C-5 3.01 -5 2.02 -5 1 C-3.35 0.67 -1.7 0.34 0 0 Z " fill="#19426B" transform="translate(406,57)"/>
<path d="M0 0 C2.97 0 5.94 0 9 0 C9 0.66 9 1.32 9 2 C7.68 2 6.36 2 5 2 C5 4.64 5 7.28 5 10 C4.34 10 3.68 10 3 10 C3 7.36 3 4.72 3 2 C2.01 2 1.02 2 0 2 C0 1.34 0 0.68 0 0 Z " fill="#8DA1B5" transform="translate(289,58)"/>
<path d="M0 0 C1.98 0 3.96 0 6 0 C5.67 0.66 5.34 1.32 5 2 C4.01 1.67 3.02 1.34 2 1 C2 2.32 2 3.64 2 5 C3.32 4.67 4.64 4.34 6 4 C5.67 4.99 5.34 5.98 5 7 C4.01 6.67 3.02 6.34 2 6 C2.33 7.65 2.66 9.3 3 11 C2.01 11 1.02 11 0 11 C0 7.37 0 3.74 0 0 Z " fill="#97A9BC" transform="translate(249,40)"/>
<path d="M0 0 C1.32 0 2.64 0 4 0 C4 2.97 4 5.94 4 9 C2.68 9 1.36 9 0 9 C0 6.03 0 3.06 0 0 Z " fill="#0C3763" transform="translate(188,42)"/>
<path d="M0 0 C2.31 0 4.62 0 7 0 C7.33 1.32 7.66 2.64 8 4 C7.34 4 6.68 4 6 4 C5.67 3.34 5.34 2.68 5 2 C4.34 2 3.68 2 3 2 C2.67 4.64 2.34 7.28 2 10 C1.34 10 0.68 10 0 10 C0 6.7 0 3.4 0 0 Z " fill="#8DA1B5" transform="translate(171,58)"/>
<path d="M0 0 C-0.99 2.97 -1.98 5.94 -3 9 C-4.65 9 -6.3 9 -8 9 C-7.745504 7.51793505 -7.47088238 6.03931385 -7.1875 4.5625 C-7.03667969 3.73878906 -6.88585937 2.91507813 -6.73046875 2.06640625 C-6.48941406 1.38449219 -6.24835938 0.70257813 -6 0 C-3 -1 -3 -1 0 0 Z " fill="#476788" transform="translate(180,42)"/>
<path d="M0 0 C1.67542976 0.28604898 3.34385343 0.61781233 5 1 C3.68 1.33 2.36 1.66 1 2 C1 2.66 1 3.32 1 4 C2.32 4.66 3.64 5.32 5 6 C4.67 7.65 4.34 9.3 4 11 C2.35 11 0.7 11 -1 11 C-1.33 10.34 -1.66 9.68 -2 9 C-0.35 9 1.3 9 3 9 C3 8.34 3 7.68 3 7 C0.525 6.01 0.525 6.01 -2 5 C-1.125 1.125 -1.125 1.125 0 0 Z " fill="#9FB0C1" transform="translate(292,40)"/>
<path d="M0 0 C0.66 0 1.32 0 2 0 C2 2.97 2 5.94 2 9 C1.01 9 0.02 9 -1 9 C-3 6 -3 6 -2.75 3.9375 C-2 2 -2 2 0 0 Z " fill="#0A3561" transform="translate(183,42)"/>
<path d="M0 0 C1.9453125 -0.29296875 1.9453125 -0.29296875 4.125 -0.1875 C5.40375 -0.125625 6.6825 -0.06375 8 0 C7.67 0.99 7.34 1.98 7 3 C5.35 2.67 3.7 2.34 2 2 C1.3121764 4.35367713 1.3121764 4.35367713 1 7 C1.99 8.485 1.99 8.485 3 10 C1.68 9.67 0.36 9.34 -1 9 C-1.625 6.1875 -1.625 6.1875 -2 3 C-1.34 2.01 -0.68 1.02 0 0 Z " fill="#91A4B8" transform="translate(446,58)"/>
<path d="M0 0 C2.475 0.495 2.475 0.495 5 1 C4.67 2.65 4.34 4.3 4 6 C2.68 6.33 1.36 6.66 0 7 C0 4.69 0 2.38 0 0 Z " fill="#05315E" transform="translate(281,60)"/>
<path d="M0 0 C0.99 0 1.98 0 3 0 C3.99 2.97 4.98 5.94 6 9 C5.34 9 4.68 9 4 9 C3.67 7.35 3.34 5.7 3 4 C2.34 4 1.68 4 1 4 C1.33 5.98 1.66 7.96 2 10 C1.34 10 0.68 10 0 10 C0 6.7 0 3.4 0 0 Z " fill="#92A5B9" transform="translate(192,41)"/>
<path d="M0 0 C0.99 0.33 1.98 0.66 3 1 C2.34 1 1.68 1 1 1 C1.66 1.99 2.32 2.98 3 4 C5 7 5 7 4.625 9.1875 C4.41875 9.785625 4.2125 10.38375 4 11 C2.68 11 1.36 11 0 11 C0 7.37 0 3.74 0 0 Z " fill="#30557A" transform="translate(259,58)"/>
<path d="M0 0 C1.98 0 3.96 0 6 0 C6.33 1.65 6.66 3.3 7 5 C4.66666667 5 2.33333333 5 0 5 C0 3.35 0 1.7 0 0 Z " fill="#365A7E" transform="translate(346,62)"/>
<path d="M0 0 C1.65 0 3.3 0 5 0 C5 1.65 5 3.3 5 5 C3.02 5.99 3.02 5.99 1 7 C0.67 4.69 0.34 2.38 0 0 Z " fill="#20476F" transform="translate(150,62)"/>
<path d="M0 0 C2.31 0 4.62 0 7 0 C7 0.66 7 1.32 7 2 C5.68 2 4.36 2 3 2 C2.67 4.64 2.34 7.28 2 10 C1.34 10 0.68 10 0 10 C0 6.7 0 3.4 0 0 Z " fill="#9FB0C1" transform="translate(364,58)"/>
<path d="M0 0 C0.99 0 1.98 0 3 0 C3.33 3.96 3.66 7.92 4 12 C2.68 12 1.36 12 0 12 C0 8.04 0 4.08 0 0 Z " fill="#B3C0CE" transform="translate(260,39)"/>
<path d="M0 0 C1.65 0 3.3 0 5 0 C4.67 0.66 4.34 1.32 4 2 C3.34 2 2.68 2 2 2 C1.67 2.66 1.34 3.32 1 4 C2.65 4.33 4.3 4.66 6 5 C5.67 5.99 5.34 6.98 5 8 C3.02 7.01 1.04 6.02 -1 5 C-0.67 3.35 -0.34 1.7 0 0 Z " fill="#899DB3" transform="translate(199,58)"/>
<path d="M0 0 C0.99 0.33 1.98 0.66 3 1 C2.34 1 1.68 1 1 1 C1 2.98 1 4.96 1 7 C0.01 7 -0.98 7 -2 7 C-2 6.34 -2 5.68 -2 5 C-2.99 5 -3.98 5 -5 5 C-5 4.34 -5 3.68 -5 3 C-3.68 3 -2.36 3 -1 3 C-0.67 2.01 -0.34 1.02 0 0 Z " fill="#17406A" transform="translate(432,57)"/>
<path d="M0 0 C5.57142857 5.14285714 5.57142857 5.14285714 6 9 C3.03 8.505 3.03 8.505 0 8 C0.66 7.34 1.32 6.68 2 6 C1.01 4.68 0.02 3.36 -1 2 C-0.67 1.34 -0.34 0.68 0 0 Z " fill="#567492" transform="translate(50,54)"/>
<path d="M0 0 C0.33 0 0.66 0 1 0 C1 2.31 1 4.62 1 7 C2.65 6.34 4.3 5.68 6 5 C6 5.99 6 6.98 6 8 C5 9 5 9 1.4375 9.0625 C0.303125 9.041875 -0.83125 9.02125 -2 9 C-1.34 8.67 -0.68 8.34 0 8 C0 5.36 0 2.72 0 0 Z " fill="#567492" transform="translate(280,60)"/>
<path d="M0 0 C3 1 3 1 4.6875 3.9375 C6 7 6 7 6 9 C5.34 9 4.68 9 4 9 C3.34 7.35 2.68 5.7 2 4 C1.67 5.65 1.34 7.3 1 9 C0.67 9 0.34 9 0 9 C0 6.03 0 3.06 0 0 Z " fill="#AEBCCB" transform="translate(260,59)"/>
<path d="M0 0 C0.33 0.66 0.66 1.32 1 2 C1.99 2.33 2.98 2.66 4 3 C4 3.99 4 4.98 4 6 C-0.55384615 6.36923077 -0.55384615 6.36923077 -2.8125 4.5 C-3.204375 4.005 -3.59625 3.51 -4 3 C-2.68 2.01 -1.36 1.02 0 0 Z " fill="#5A7795" transform="translate(116,54)"/>
<path d="M0 0 C0.66 0.99 1.32 1.98 2 3 C0.12356239 4.87643761 -2.49805701 4.17984987 -4.9921875 4.23046875 C-7 4 -7 4 -10 2 C-3.375 0.875 -3.375 0.875 0 2 C0 1.34 0 0.68 0 0 Z " fill="#537290" transform="translate(317,47)"/>
<path d="M0 0 C0.66 0 1.32 0 2 0 C2 3.63 2 7.26 2 11 C1.01 10.34 0.02 9.68 -1 9 C-1.47114738 6.2572492 -1.17805784 3.80441103 -1 1 C-0.67 0.67 -0.34 0.34 0 0 Z " fill="#2B5077" transform="translate(247,40)"/>
<path d="M0 0 C0.33 0 0.66 0 1 0 C1.625 2.875 1.625 2.875 2 6 C0 8 0 8 -3.125 8.125 C-4.548125 8.063125 -4.548125 8.063125 -6 8 C-5.67 7.01 -5.34 6.02 -5 5 C-3.68 5 -2.36 5 -1 5 C-0.67 3.35 -0.34 1.7 0 0 Z " fill="#5C7896" transform="translate(384,61)"/>
<path d="M0 0 C2.29013653 3.4352048 2.17842973 4.985331 2 9 C1.34 9 0.68 9 0 9 C0 9.66 0 10.32 0 11 C-0.66 10.67 -1.32 10.34 -2 10 C-1.34 6.7 -0.68 3.4 0 0 Z " fill="#214870" transform="translate(443,58)"/>
<path d="M0 0 C2 2 2 2 2.1953125 3.9453125 C2.13020833 5.96354167 2.06510417 7.98177083 2 10 C1.01 10 0.02 10 -1 10 C-1.02689216 8.52093108 -1.04634621 7.04172517 -1.0625 5.5625 C-1.07410156 4.73878906 -1.08570313 3.91507813 -1.09765625 3.06640625 C-1 1 -1 1 0 0 Z " fill="#1D446D" transform="translate(302,40)"/>
<path d="M0 0 C1.65 0.33 3.3 0.66 5 1 C5 1.99 5 2.98 5 4 C3.02 4.33 1.04 4.66 -1 5 C-0.67 3.35 -0.34 1.7 0 0 Z " fill="#18416B" transform="translate(228,63)"/>
<path d="M0 0 C1.98 0.99 1.98 0.99 4 2 C4 2.99 4 3.98 4 5 C3.34 4.67 2.68 4.34 2 4 C2 5.98 2 7.96 2 10 C1.34 10 0.68 10 0 10 C0 6.7 0 3.4 0 0 Z " fill="#8CA0B5" transform="translate(433,58)"/>
<path d="M0 0 C0.66 0.66 1.32 1.32 2 2 C1.34 3.65 0.68 5.3 0 7 C-0.33 6.01 -0.66 5.02 -1 4 C-2.32 4 -3.64 4 -5 4 C-5 3.01 -5 2.02 -5 1 C-2.525 1.495 -2.525 1.495 0 2 C0 1.34 0 0.68 0 0 Z " fill="#1A426C" transform="translate(351,58)"/>
<path d="M0 0 C2.64 0.33 5.28 0.66 8 1 C7.01 2.32 6.02 3.64 5 5 C2.525 4.01 2.525 4.01 0 3 C0 2.01 0 1.02 0 0 Z " fill="#113B66" transform="translate(230,58)"/>
<path d="M0 0 C0.66 0 1.32 0 2 0 C2.66 1.32 3.32 2.64 4 4 C1.03 4 -1.94 4 -5 4 C-5 3.34 -5 2.68 -5 2 C-3.35 2 -1.7 2 0 2 C0 1.34 0 0.68 0 0 Z " fill="#D1D9E1" transform="translate(40,55)"/>
<path d="M0 0 C1.20628008 2.33214148 2.1654738 4.49642139 3 7 C0.03 6.505 0.03 6.505 -3 6 C-3 4.68 -3 3.36 -3 2 C-2.34 2 -1.68 2 -1 2 C-0.67 1.34 -0.34 0.68 0 0 Z " fill="#254B72" transform="translate(211,44)"/>
<path d="M0 0 C2.38564077 0.57584432 4.66682784 1.22227595 7 2 C6.67 3.65 6.34 5.3 6 7 C5.01 7 4.02 7 3 7 C2.814375 5.824375 2.814375 5.824375 2.625 4.625 C2.20882007 1.85942178 2.20882007 1.85942178 0 0 Z " fill="#7991A9" transform="translate(77,38)"/>
<path d="M0 0 C0.66 0.33 1.32 0.66 2 1 C1.34 2.98 0.68 4.96 0 7 C-1.32 6.34 -2.64 5.68 -4 5 C-4 3.68 -4 2.36 -4 1 C-2.68 1.33 -1.36 1.66 0 2 C0 1.34 0 0.68 0 0 Z " fill="#2D5278" transform="translate(154,40)"/>
<path d="M0 0 C0.66 0.33 1.32 0.66 2 1 C1.195625 1.680625 0.39125 2.36125 -0.4375 3.0625 C-3.42288711 6.48477302 -3.73781251 8.5428126 -4 13 C-4.33 13 -4.66 13 -5 13 C-5.61538462 5.73846154 -5.61538462 5.73846154 -2.5 2 C-1.675 1.34 -0.85 0.68 0 0 Z " fill="#31567B" transform="translate(61,41)"/>
<path d="M0 0 C1.32 0 2.64 0 4 0 C4 1.65 4 3.3 4 5 C2.35 4.67 0.7 4.34 -1 4 C-0.67 2.68 -0.34 1.36 0 0 Z " fill="#1D456E" transform="translate(273,40)"/>
<path d="M0 0 C1.32 0 2.64 0 4 0 C4.33 1.32 4.66 2.64 5 4 C3.35 4.33 1.7 4.66 0 5 C0 3.35 0 1.7 0 0 Z " fill="#34577C" transform="translate(458,62)"/>
<path d="M0 0 C1.67542976 0.28604898 3.34385343 0.61781233 5 1 C4.67 1.99 4.34 2.98 4 4 C2.02 4.33 0.04 4.66 -2 5 C-1.125 1.125 -1.125 1.125 0 0 Z " fill="#133C67" transform="translate(400,63)"/>
<path d="M0 0 C0.66 0 1.32 0 2 0 C4.03435531 3.72965139 5 5.66905042 5 10 C4.34 10 3.68 10 3 10 C2.01 6.7 1.02 3.4 0 0 Z " fill="#9FB0C1" transform="translate(167,41)"/>
<path d="M0 0 C3.2542015 2.83430453 4.5206753 4.68607774 5 9 C4.34 9 3.68 9 3 9 C0 2.25 0 2.25 0 0 Z " fill="#9FB0C1" transform="translate(164,59)"/>
<path d="M0 0 C1.98 0 3.96 0 6 0 C5.34 1.98 4.68 3.96 4 6 C3.34 5.67 2.68 5.34 2 5 C2.33 4.34 2.66 3.68 3 3 C2.01 3 1.02 3 0 3 C0 2.01 0 1.02 0 0 Z " fill="#244A72" transform="translate(193,59)"/>
<path d="M0 0 C1.65 0.33 3.3 0.66 5 1 C4.67 1.99 4.34 2.98 4 4 C2.35 3.67 0.7 3.34 -1 3 C-0.67 2.01 -0.34 1.02 0 0 Z " fill="#1D456D" transform="translate(291,46)"/>
<path d="M0 0 C1.32 0 2.64 0 4 0 C4 1.65 4 3.3 4 5 C2.68 5 1.36 5 0 5 C0 3.35 0 1.7 0 0 Z " fill="#0A3561" transform="translate(273,46)"/>
<path d="M0 0 C0.66 0.33 1.32 0.66 2 1 C2 3.64 2 6.28 2 9 C1.01 9 0.02 9 -1 9 C-1.09765625 2.84765625 -1.09765625 2.84765625 -1 1 C-0.67 0.67 -0.34 0.34 0 0 Z " fill="#1B436C" transform="translate(146,40)"/>
<path d="M0 0 C1.65 0 3.3 0 5 0 C4.67 1.32 4.34 2.64 4 4 C2.35 3.67 0.7 3.34 -1 3 C-0.67 2.01 -0.34 1.02 0 0 Z " fill="#234A72" transform="translate(315,41)"/>
<path d="M0 0 C0.66 0 1.32 0 2 0 C1.67 1.65 1.34 3.3 1 5 C-0.98 5 -2.96 5 -5 5 C-4.34 4.34 -3.68 3.68 -3 3 C-2.01 3 -1.02 3 0 3 C0 2.01 0 1.02 0 0 Z " fill="#6D86A1" transform="translate(360,64)"/>
<path d="M0 0 C0.226875 0.5775 0.45375 1.155 0.6875 1.75 C2.33038023 4.5663661 4.39533227 6.08077114 7 8 C4.625 8.125 4.625 8.125 2 8 C0 6 0 6 -0.125 2.875 C-0.08375 1.92625 -0.0425 0.9775 0 0 Z " fill="#A9B8C8" transform="translate(303,43)"/>
<path d="M0 0 C0.66 0.66 1.32 1.32 2 2 C2.66 1.34 3.32 0.68 4 0 C4.33 1.65 4.66 3.3 5 5 C3.35 4.67 1.7 4.34 0 4 C0 2.68 0 1.36 0 0 Z " fill="#446586" transform="translate(163,41)"/>
<path d="M0 0 C0.33 0.99 0.66 1.98 1 3 C0.34 3.66 -0.32 4.32 -1 5 C-1.99 5 -2.98 5 -4 5 C-4 3.68 -4 2.36 -4 1 C-2.68 0.67 -1.36 0.34 0 0 Z " fill="#2C5177" transform="translate(255,40)"/>
<path d="M0 0 C1.9375 0.5 1.9375 0.5 4 2 C4.68790422 4.69658452 4.81946464 7.2017019 5 10 C4.731875 9.4225 4.46375 8.845 4.1875 8.25 C3.04946754 5.94252104 3.04946754 5.94252104 1.375 3.875 C0 2 0 2 0 0 Z " fill="#A7B7C6" transform="translate(281,40)"/>
<path d="M0 0 C1.32 0 2.64 0 4 0 C4 2 4 2 2.125 4.125 C0 6 0 6 -2 6 C-1.34 4.02 -0.68 2.04 0 0 Z " fill="#C3CDD8" transform="translate(59,16)"/>
</svg>
