<?xml version="1.0" encoding="UTF-8"?>
<svg xmlns="http://www.w3.org/2000/svg" viewBox="0 0 350 326" fill="currentColor" role="img" aria-label="Blaumann" preserveAspectRatio="xMidYMid meet">
<path d="M0 0 C115.5 0 231 0 350 0 C350 107.58 350 215.16 350 326 C234.5 326 119 326 0 326 C0 218.42 0 110.84 0 0 Z " fill="#C4D0DF" transform="translate(0,0)"/>
<path d="M0 0 C1.88149973 0.01507144 3.7630111 0.0287555 5.64453125 0.04101562 C10.2216453 0.07383247 14.79819231 0.12547933 19.375 0.1875 C17.89271341 8.32134697 15.84691689 16.2673384 13.70703125 24.25 C13.3452556 25.60824801 12.98374527 26.96656671 12.6224823 28.32495117 C11.6727823 31.89290876 10.71934857 35.45985816 9.76513672 39.02661133 C8.81954743 42.56397854 7.87777161 46.10236043 6.93554688 49.640625 C3.86173695 61.17747045 0.77636502 72.71111351 -2.33668518 84.23744202 C-5.09229748 94.44105398 -7.808236 104.65414424 -10.484375 114.87890625 C-10.80489334 116.10298187 -11.12541168 117.3270575 -11.4556427 118.58822632 C-12.76375705 123.5862564 -14.07113034 128.58447354 -15.37451172 133.58374023 C-16.34593343 137.30784075 -17.32111215 141.03094117 -18.296875 144.75390625 C-18.58753845 145.87269669 -18.8782019 146.99148712 -19.17767334 148.1441803 C-20.60995464 153.59778081 -22.13561173 158.97188892 -23.99649048 164.29576111 C-24.96558347 167.21261574 -25.60557316 170.18489584 -26.25 173.1875 C-27.51880531 179.08130531 -27.51880531 179.08130531 -28.625 180.1875 C-31.14594076 180.27597743 -33.63930893 180.30277301 -36.16015625 180.28515625 C-37.29003212 180.28303383 -37.29003212 180.28303383 -38.44273376 180.28086853 C-40.8576956 180.27525376 -43.27256601 180.26269883 -45.6875 180.25 C-47.32096221 180.2449869 -48.95442586 180.24042366 -50.58789062 180.23632812 C-54.60029585 180.22527954 -58.61263241 180.20800506 -62.625 180.1875 C-61.98338058 173.33054565 -60.34749377 166.95327151 -58.50390625 160.328125 C-57.86588089 157.99809268 -57.22802774 155.66801319 -56.59033203 153.33789062 C-56.26349426 152.15074463 -55.93665649 150.96359863 -55.59991455 149.74047852 C-54.07465387 144.18181862 -52.58315393 138.61418559 -51.08984375 133.046875 C-50.50214479 130.8619276 -49.91425379 128.67703185 -49.32617188 126.4921875 C-48.44210442 123.20675865 -47.5581437 119.92130132 -46.67456055 116.63574219 C-46.38170166 115.54680664 -46.08884277 114.45787109 -45.78710938 113.3359375 C-45.34970932 111.70948303 -45.34970932 111.70948303 -44.9034729 110.0501709 C-44.04196751 106.85117683 -43.17706117 103.65311535 -42.31201172 100.45507812 C-41.16595683 96.21342437 -40.03986502 91.96708272 -38.92626953 87.71679688 C-38.65504776 86.69314026 -38.38382599 85.66948364 -38.10438538 84.61480713 C-37.59016587 82.67391501 -37.08209395 80.73138069 -36.58103943 78.78704834 C-36.3526387 77.93080872 -36.12423798 77.07456909 -35.88891602 76.19238281 C-35.69217789 75.43983215 -35.49543976 74.68728149 -35.29273987 73.91192627 C-34.625 72.1875 -34.625 72.1875 -32.625 71.1875 C-33.13289063 70.85878906 -33.64078125 70.53007813 -34.1640625 70.19140625 C-42.30749051 64.56420599 -47.84711275 56.56013734 -50.18359375 46.87109375 C-52.27855402 34.13447689 -49.85901686 23.36688534 -42.703125 12.73828125 C-31.53159594 -0.9741407 -16.11366757 -0.22494057 0 0 Z " fill="#5295CD" transform="translate(137.625,45.8125)"/>
<path d="M0 0 C11.77069467 1.1944891 19.95682491 6.2761417 28 15 C36.35837937 26.05065735 37.98844026 37.50504481 37 51 C35.8115281 58.4378533 32.46219503 64.0215251 28 70 C29.4904443 73.34776719 31.44237034 75.84247684 33.8125 78.625 C41.33120681 87.9007959 46.27688731 98.99194686 47 111 C47.05285156 111.80953125 47.10570312 112.6190625 47.16015625 113.453125 C47.72508393 130.2535831 41.92474973 146.31135839 31 159 C26.42699265 163.60786259 21.78572353 167.96983383 16 171 C15.01 171 14.02 171 13 171 C13 171.66 13 172.32 13 173 C10.83735394 173.82314197 8.66964902 174.63299779 6.5 175.4375 C5.2934375 175.88996094 4.086875 176.34242188 2.84375 176.80859375 C-3.89669185 179.07597743 -10.83757929 179.14494826 -17.875 179.09765625 C-18.68493408 179.0962413 -19.49486816 179.09482635 -20.3293457 179.09336853 C-22.88626994 179.08782383 -25.44310276 179.07528207 -28 179.0625 C-29.74609247 179.05747784 -31.49218634 179.05291619 -33.23828125 179.04882812 C-37.49222209 179.0378726 -41.74609561 179.02064694 -46 179 C-45.5206546 172.21851455 -44.40939923 165.9567345 -42.5 159.4375 C-42.16162109 158.2299707 -42.16162109 158.2299707 -41.81640625 156.99804688 C-40.1476996 151.1476996 -40.1476996 151.1476996 -39 150 C-36.83794752 149.88986915 -34.67257741 149.84403321 -32.5078125 149.82421875 C-31.14842277 149.80097609 -29.78904781 149.77685712 -28.4296875 149.75195312 C-26.29287498 149.71718251 -24.15658899 149.68770146 -22.01953125 149.67407227 C-10.18776683 149.58389113 0.40180633 148.46915939 9.34765625 139.92578125 C11.94399172 136.89979216 13.59776482 133.71384069 15 130 C15.35449219 129.07574219 15.70898438 128.15148437 16.07421875 127.19921875 C18.81855299 117.71563332 17.50221795 108.4400729 13.484375 99.5859375 C9.30833189 92.31083083 3.49157695 87.69358556 -4.55859375 85.2109375 C-7.03793429 84.69263542 -9.48590641 84.30582181 -12 84 C-12.86753906 83.89042969 -13.73507813 83.78085938 -14.62890625 83.66796875 C-16.74968642 83.41905089 -18.87459123 83.20568472 -21 83 C-19.26726504 74.5821032 -17.37704629 66.26065732 -15 58 C-13.97519531 57.89042969 -12.95039063 57.78085938 -11.89453125 57.66796875 C-10.53378133 57.50843255 -9.17310806 57.3482416 -7.8125 57.1875 C-7.13896484 57.11724609 -6.46542969 57.04699219 -5.77148438 56.97460938 C-1.50290833 56.45405132 1.54904054 55.5882196 5 53 C7.98348834 48.57620695 8.94143187 44.25379723 8 39 C6.55308851 35.52877101 4.6716264 32.6716264 2 30 C0.03309626 29.32707499 0.03309626 29.32707499 -2.125 28.875 C-3.40375 28.58625 -4.6825 28.2975 -6 28 C-5.35521919 21.65594974 -4.03753669 15.6670882 -2.4375 9.5 C-2.08655273 8.12328125 -2.08655273 8.12328125 -1.72851562 6.71875 C-1.15666285 4.47802077 -0.58041707 2.23852312 0 0 Z " fill="#5395CD" transform="translate(220,47)"/>
<path d="M0 0 C0.66 0 1.32 0 2 0 C2.54527344 1.0415625 3.09054688 2.083125 3.65234375 3.15625 C10.68822683 16.55027652 17.98476704 29.74917816 25.82495117 42.68994141 C28.59140345 47.27155319 31.2113791 51.91463695 33.7109375 56.6484375 C34.93521117 58.96654483 34.93521117 58.96654483 36.2890625 60.9140625 C39.01175223 64.97031454 39.39556133 67.68505404 38.62109375 72.33984375 C37.30882966 77.96029561 35.66709107 83.4765813 34 89 C33.32582362 91.33126412 32.66237732 93.66534273 32 96 C29.03 96 26.06 96 23 96 C22.67 94.68 22.34 93.36 22 92 C21.34 92 20.68 92 20 92 C19.47756714 91.03839966 19.47756714 91.03839966 18.94458008 90.05737305 C15.52273566 83.77023235 12.07145373 77.50017608 8.59350586 71.24389648 C7.29471401 68.90567188 5.99959158 66.56575387 4.70922852 64.22290039 C1.88301479 59.10228946 -0.95169394 54.0034656 -4.046875 49.0390625 C-4.47959717 48.33031982 -4.91231934 47.62157715 -5.3581543 46.89135742 C-6.1268144 45.64432989 -6.91802981 44.41074266 -7.73754883 43.1965332 C-9.83215261 39.75651253 -10.17146329 37.31918582 -9.47265625 33.48046875 C-9.01186723 31.6458233 -8.51730357 29.81951847 -8 28 C-7.69360596 26.87037842 -7.38721191 25.74075684 -7.0715332 24.5769043 C-6.03672292 20.83345014 -4.96173461 17.10369012 -3.875 13.375 C-3.49832456 12.07172243 -3.12201995 10.76833763 -2.74609375 9.46484375 C-1.83435535 6.3088262 -0.91891309 3.15393452 0 0 Z " fill="#5496CE" transform="translate(138,130)"/>
<path d="M0 0 C19.14 0 38.28 0 58 0 C56.11324907 9.43375463 53.57488915 18.73039907 51 28 C31.86 28 12.72 28 -7 28 C-5 17 -5 17 0 0 Z " fill="#4F92CB" transform="translate(160,46)"/>
<path d="M0 0 C4.53402423 4.74011624 7.06758216 8.55350244 7.1875 15.125 C7 19 7 19 6 22 C61.44 22 116.88 22 174 22 C174 22.33 174 22.66 174 23 C173.14577926 22.99870118 172.29155851 22.99740236 171.41145229 22.99606419 C150.62097774 22.96685559 129.8308322 22.97622431 109.04039669 23.02846622 C98.98622813 23.05280109 88.93236092 23.06410581 78.87817383 23.04467773 C70.11433119 23.02777616 61.35091006 23.03538181 52.58712298 23.07234758 C47.94711986 23.09106514 43.30782954 23.09755665 38.66782951 23.07469368 C34.29834508 23.05355102 29.93016521 23.0652322 25.56079483 23.10184479 C23.95925253 23.10952405 22.3576012 23.1053185 20.75613213 23.08818626 C12.29401345 22.75985684 12.29401345 22.75985684 4.54968452 25.54928398 C2.82140464 27.27703241 1.43666107 29.03154689 0 31 C-5.25986532 34.70581421 -10.77368195 34.81567485 -17 34 C-21.92340017 32.28831321 -25.61836433 28.89400471 -29 25 C-29 24.34 -29 23.68 -29 23 C-34.51803023 23.0687191 -40.03529115 23.15660674 -45.55273438 23.26245117 C-47.43057747 23.29575202 -49.3085219 23.32376776 -51.18652344 23.34643555 C-53.88260175 23.37988742 -56.577747 23.43219641 -59.2734375 23.48828125 C-60.53756973 23.49786613 -60.53756973 23.49786613 -61.82723999 23.50764465 C-64.43938687 23.53930845 -64.43938687 23.53930845 -68 24 C-68.66 24.99 -69.32 25.98 -70 27 C-69.67 25.35 -69.34 23.7 -69 22 C-55.8 22 -42.6 22 -29 22 C-29.495 21.01 -29.495 21.01 -30 20 C-30.6473023 13.07884469 -30.19574216 7.9216187 -25.67578125 2.375 C-18.56294352 -5.39124802 -8.71232152 -5.74221191 0 0 Z " fill="#4988C1" transform="translate(155,10)"/>
<path d="M0 0 C2 2 2 2 2.3125 5.3125 C1.98561318 9.16976442 1.08009563 10.83463708 -1 14 C-0.67 14.66 -0.34 15.32 0 16 C0.59968751 21.27725011 -0.72835275 23.88707202 -4 28 C-7.63195496 30.42130331 -9.38349348 30.21022785 -13.6875 30.125 C-14.86699219 30.10695313 -16.04648438 30.08890625 -17.26171875 30.0703125 C-18.16535156 30.04710937 -19.06898437 30.02390625 -20 30 C-19.38776763 24.52664262 -18.52962799 19.23086229 -17.25 13.875 C-17.105625 13.19824219 -16.96125 12.52148438 -16.8125 11.82421875 C-15.5913249 6.73270646 -13.69683243 3.73085236 -10 0 C-6.25976024 -1.24674659 -3.83399823 -0.76679965 0 0 Z " fill="#3768A0" transform="translate(90,230)"/>
<path d="M0 0 C2.15480903 1.61610677 2.91301544 2.48183394 3.36328125 5.1640625 C3.03353818 21.14391882 3.03353818 21.14391882 -3 27 C-6.24877925 29.27414548 -9.09216415 29.41572722 -13 29 C-15.10830743 27.42374185 -15.89577142 26.50330198 -16.43359375 23.90625 C-16.44556312 16.5331171 -15.22101162 9.18007688 -10.609375 3.1953125 C-7.26575682 0.08046819 -4.45658864 -0.79228243 0 0 Z " fill="#2F609C" transform="translate(223,264)"/>
<path d="M0 0 C2.11860075 1.6065219 2.90474079 2.49101698 3.3984375 5.12890625 C3.32395081 12.86310779 2.52503889 19.98227059 -2.5625 26.0625 C-6.23101434 28.97849858 -8.31087965 29.38278533 -13 29 C-15.14764179 27.41567409 -15.9037094 26.51449391 -16.3984375 23.87109375 C-16.33135538 16.90573389 -15.91931992 9.70075404 -11.453125 4.0390625 C-7.86565978 0.6579559 -5.07498393 -1.0380649 0 0 Z " fill="#31639D" transform="translate(96,264)"/>
<path d="M0 0 C1.32 0.33 2.64 0.66 4 1 C4 8.59 4 16.18 4 24 C4.66 24 5.32 24 6 24 C6.07347656 23.35417969 6.14695313 22.70835937 6.22265625 22.04296875 C7.31393084 17.77109486 9.34476529 14.17374291 11.4375 10.3125 C11.84548828 9.54099609 12.25347656 8.76949219 12.67382812 7.97460938 C15.72550517 2.27449483 15.72550517 2.27449483 18 0 C18.99 0 19.98 0 21 0 C21.50892859 10.66865123 19.97003514 20.55177791 18 31 C17.01 31 16.02 31 15 31 C15.33 24.07 15.66 17.14 16 10 C12.37 16.93 8.74 23.86 5 31 C3.68 30.67 2.36 30.34 1 30 C0.67 22.74 0.34 15.48 0 8 C-2.64 15.59 -5.28 23.18 -8 31 C-9.32 31 -10.64 31 -12 31 C-10.24708981 24.35563564 -7.91517864 17.96364963 -5.4375 11.5625 C-5.13255615 10.76924316 -4.8276123 9.97598633 -4.51342773 9.15869141 C-4.21895752 8.4063623 -3.9244873 7.6540332 -3.62109375 6.87890625 C-3.3573999 6.2041626 -3.09370605 5.52941895 -2.82202148 4.83422852 C-2 3 -2 3 0 0 Z " fill="#34659E" transform="translate(163,229)"/>
<path d="M0 0 C2.56710557 2.56710557 2.32675025 3.61219328 2.375 7.1875 C2.28226862 14.81929217 0.2155288 21.75996839 -2 29 C-3.32 29.33 -4.64 29.66 -6 30 C-5.48594831 25.03083364 -4.76615118 20.70973649 -3 16 C-6.3 16 -9.6 16 -13 16 C-13.45375 17.381875 -13.9075 18.76375 -14.375 20.1875 C-15.47975443 23.50699909 -16.64632091 26.77199601 -18 30 C-18.99 30 -19.98 30 -21 30 C-17.46703143 6.1836354 -17.46703143 6.1836354 -10 0 C-6.25976024 -1.24674659 -3.83399823 -0.76679965 0 0 Z " fill="#31639D" transform="translate(128,230)"/>
<path d="M0 0 C2.1875 0.3125 2.1875 0.3125 4 1 C5.85939879 8.78069851 7.41467342 15.98298054 7 24 C7.66 24 8.32 24 9 24 C9.103125 22.80375 9.20625 21.6075 9.3125 20.375 C10.0258185 13.81876379 11.54689876 7.42471808 13 1 C14.32 1 15.64 1 17 1 C16.34846336 7.28110606 15.10367793 13.25522057 13.5625 19.375 C13.34529297 20.27605469 13.12808594 21.17710937 12.90429688 22.10546875 C12.68966797 22.96527344 12.47503906 23.82507813 12.25390625 24.7109375 C11.96495483 25.87568604 11.96495483 25.87568604 11.67016602 27.06396484 C11 29 11 29 9 31 C7 31 7 31 5 30 C3.22319389 25.6172116 2.49210685 21.29738046 1.875 16.625 C1.70742187 15.37976563 1.53984375 14.13453125 1.3671875 12.8515625 C1.24601563 11.91054687 1.12484375 10.96953125 1 10 C0.67 10 0.34 10 0 10 C-1.65 16.93 -3.3 23.86 -5 31 C-6.32 31 -7.64 31 -9 31 C-8.25265813 24.98804986 -6.99922777 19.14772751 -5.625 13.25 C-5.31175781 11.83267578 -5.31175781 11.83267578 -4.9921875 10.38671875 C-4.78078125 9.48050781 -4.569375 8.57429687 -4.3515625 7.640625 C-4.16416504 6.82110352 -3.97676758 6.00158203 -3.78369141 5.15722656 C-2.90663412 2.7429966 -2.03121979 1.55775837 0 0 Z " fill="#3868A0" transform="translate(216,229)"/>
<path d="M0 0 C0.99 0 1.98 0 3 0 C3.67885987 2.49723452 4.34317427 4.99696141 5 7.5 C5.19078125 8.19609375 5.3815625 8.8921875 5.578125 9.609375 C6.85677012 14.5412919 7.18357474 18.90580091 7 24 C7.66 24 8.32 24 9 24 C9.0825 22.80375 9.165 21.6075 9.25 20.375 C9.96436531 13.7111445 12.04707014 7.38562647 14 1 C14.99 1 15.98 1 17 1 C13.76595745 26.23404255 13.76595745 26.23404255 9 31 C6.875 30.625 6.875 30.625 5 30 C2.87063281 23.45980079 1.96086298 16.79759451 1 10 C0.67 10 0.34 10 0 10 C-1.65 16.93 -3.3 23.86 -5 31 C-6.32 31 -7.64 31 -9 31 C-8.04332765 24.24035457 -6.76780294 17.60764287 -5.0625 11 C-4.74410156 9.7625 -4.42570313 8.525 -4.09765625 7.25 C-3.0733061 4.21704867 -2.25173669 2.25738014 0 0 Z " fill="#33649E" transform="translate(240,229)"/>
<path d="M0 0 C1.65 0.33 3.3 0.66 5 1 C6.32 6.94 7.64 12.88 9 19 C10.32 13.06 11.64 7.12 13 1 C14.32 0.67 15.64 0.34 17 0 C15.69450978 9.22431907 13.51855006 18.05058909 11 27 C9.35 27.33 7.7 27.66 6 28 C4.56276003 22.35370013 3.23876645 16.69305433 2 11 C-0.65660214 13.65660214 -0.7903225 15.84529604 -1.5625 19.5 C-2.91312741 25.82625483 -2.91312741 25.82625483 -4 28 C-4.99 28 -5.98 28 -7 28 C-6.55477555 21.87816387 -5.43598696 16.03289966 -4.0625 10.0625 C-3.89266602 9.30461182 -3.72283203 8.54672363 -3.54785156 7.76586914 C-2.24157861 2.24157861 -2.24157861 2.24157861 0 0 Z " fill="#2E609B" transform="translate(125,265)"/>
<path d="M0 0 C1.9375 1.0625 1.9375 1.0625 3 3 C3.40978921 9.4344096 2.25278203 14.83210217 0.5 21 C0.14228516 22.30517578 0.14228516 22.30517578 -0.22265625 23.63671875 C-0.806109 25.76048675 -1.39866134 27.88124079 -2 30 C-3.32 30 -4.64 30 -6 30 C-5.69024532 28.22868439 -5.37709575 26.45796222 -5.0625 24.6875 C-4.88847656 23.70136719 -4.71445313 22.71523437 -4.53515625 21.69921875 C-4 19 -4 19 -3 16 C-6.3 16 -9.6 16 -13 16 C-12.67 14.68 -12.34 13.36 -12 12 C-8.37 12 -4.74 12 -1 12 C-1.18464366 7.65815798 -1.18464366 7.65815798 -3 4 C-5.37221956 3.49864801 -5.37221956 3.49864801 -8 4 C-12.7003066 8.35077303 -13.46603575 13.80047872 -14.75 19.8125 C-14.97042969 20.79154297 -15.19085938 21.77058594 -15.41796875 22.77929688 C-15.95750931 25.18377109 -16.48438643 27.59030226 -17 30 C-17.99 30 -18.98 30 -20 30 C-19.45174646 20.22596266 -18.57582718 9.73626727 -12 2 C-7.90960775 -1.4270854 -5.09086306 -1.31985339 0 0 Z " fill="#32639D" transform="translate(205,230)"/>
<path d="M0 0 C1.65 0.33 3.3 0.66 5 1 C6.32 7.27 7.64 13.54 9 20 C10.27428906 14.1668964 10.27428906 14.1668964 11.54272461 8.33251953 C11.78261108 7.24366455 11.78261108 7.24366455 12.02734375 6.1328125 C12.18968506 5.38918457 12.35202637 4.64555664 12.51928711 3.87939453 C13 2 13 2 14 0 C14.99 0 15.98 0 17 0 C16.28983288 5.95071072 14.92812711 11.63783318 13.4375 17.4375 C13.20353516 18.35982422 12.96957031 19.28214844 12.72851562 20.23242188 C12.15557041 22.48912444 11.57932816 24.74492921 11 27 C9.35 27.33 7.7 27.66 6 28 C4.66666667 22 3.33333333 16 2 10 C0.03470991 13.45207476 -0.7746477 16.88476226 -1.625 20.75 C-1.88539063 21.92046875 -2.14578125 23.0909375 -2.4140625 24.296875 C-2.60742188 25.18890625 -2.80078125 26.0809375 -3 27 C-4.32 27.33 -5.64 27.66 -7 28 C-6.37194347 22.28274316 -5.39060356 16.78133394 -4.0625 11.1875 C-3.89298828 10.43791016 -3.72347656 9.68832031 -3.54882812 8.91601562 C-2.73709063 5.46227322 -1.98701745 2.98052617 0 0 Z " fill="#30619C" transform="translate(232,265)"/>
<path d="M0 0 C4.00245348 0.05204751 5.46505134 0.19620868 8.9375 2.375 C11.25931367 6.21800194 11.6825872 9.0701775 10.75 13.375 C8.65937226 19.04956102 6.22658348 24.37591857 0.75 27.375 C-3.0625 28.125 -3.0625 28.125 -6.25 28.375 C-6.25 27.055 -6.25 25.735 -6.25 24.375 C-5.1775 24.148125 -4.105 23.92125 -3 23.6875 C1.16998137 22.22800652 2.42299718 21.04450445 4.75 17.375 C6.06886422 13.41840734 6.01518132 10.55160573 5.75 6.375 C2.52208445 4.2230563 1.46599191 4.17413557 -2.25 4.375 C-2.39622803 5.03097168 -2.54245605 5.68694336 -2.69311523 6.36279297 C-3.35521028 9.32580618 -4.02130419 12.28790623 -4.6875 15.25 C-4.91759766 16.28253906 -5.14769531 17.31507813 -5.38476562 18.37890625 C-5.60712891 19.36503906 -5.82949219 20.35117187 -6.05859375 21.3671875 C-6.26282959 22.27839355 -6.46706543 23.18959961 -6.67749023 24.12841797 C-7.25 26.375 -7.25 26.375 -8.25 28.375 C-9.24 28.375 -10.23 28.375 -11.25 28.375 C-10.6456834 22.08003543 -9.65787206 16.03699075 -8.25 9.875 C-8.07210937 9.06546875 -7.89421875 8.2559375 -7.7109375 7.421875 C-6.08985325 0.21167939 -6.08985325 0.21167939 0 0 Z " fill="#32639E" transform="translate(152.25,264.625)"/>
<path d="M0 0 C0.99 0 1.98 0 3 0 C2.50599503 3.86970559 1.87597479 7.58782158 0.9375 11.375 C-0.13656912 15.99747523 -0.15029509 20.26570475 0 25 C2.87364791 25.41746608 2.87364791 25.41746608 6 25 C9.29026366 20.83065827 10.32026595 15.85827705 11.625 10.8125 C12.05298141 9.19355843 12.4825918 7.57504637 12.9140625 5.95703125 C13.0992041 5.24522705 13.2843457 4.53342285 13.47509766 3.80004883 C14 2 14 2 15 0 C15.99 0 16.98 0 18 0 C14.86226147 22.91374848 14.86226147 22.91374848 9.25 28.3125 C4.97069806 30.53444524 2.77203264 30.62584035 -2 30 C-3.7109375 28.6953125 -3.7109375 28.6953125 -5 27 C-6.06095496 18.20923036 -3.3419373 9.42721214 -1 1 C-0.67 0.67 -0.34 0.34 0 0 Z " fill="#32639D" transform="translate(137,230)"/>
<path d="M0 0 C0.99 0 1.98 0 3 0 C2.60510439 4.48933958 2.12553442 8.83137381 0.9375 13.1875 C0.08580897 16.65104351 -0.17702548 19.45949045 0 23 C1.65 23.33 3.3 23.66 5 24 C8.61156442 20.22333549 9.14811903 15.82192521 10.125 10.875 C10.45876328 9.24694859 10.79460306 7.61932109 11.1328125 5.9921875 C11.27605957 5.27401855 11.41930664 4.55584961 11.56689453 3.81591797 C12 2 12 2 13 0 C13.99 0 14.98 0 16 0 C16.25975159 5.51972122 15.43368733 9.94443856 13.75 15.1875 C13.54503906 15.88552734 13.34007813 16.58355469 13.12890625 17.30273438 C11.81328836 21.49277802 10.43459067 24.23171992 7 27 C4.20129973 28.39935013 2.09501208 28.25265405 -1 28 C-2.6640625 26.71484375 -2.6640625 26.71484375 -4 25 C-5.02198079 16.3861619 -2.26432579 8.23850679 0 0 Z " fill="#2B5D9A" transform="translate(104,265)"/>
<path d="M0 0 C6.6 0.6 6.6 0.6 9 3 C9.46636118 8.59633422 9.17378446 12.18460288 6 17 C3.33276583 19.66723417 1.97255405 20.91355075 -1.8125 21.25 C-2.534375 21.1675 -3.25625 21.085 -4 21 C-4.33 21.66 -4.66 22.32 -5 23 C-1.53278689 1.53278689 -1.53278689 1.53278689 0 0 Z " fill="#D6DFE8" transform="translate(150,268)"/>
<path d="M0 0 C0.33 0.33 0.66 0.66 1 1 C0.95001167 8.22331416 0.33192253 15.66807747 -5 21 C-8.0625 21.1875 -8.0625 21.1875 -11 21 C-12 20 -12 20 -12.25 17.0625 C-12.17232054 11.70261741 -10.96289698 5.47944882 -7.58984375 1.21875 C-5.13676601 -0.66174203 -2.98289907 -0.25938253 0 0 Z " fill="#D7E0E8" transform="translate(95,268)"/>
<path d="M0 0 C3 0.125 3 0.125 4 1.125 C4.53695255 7.43419251 3.62428209 14.81011736 -0.41015625 19.90625 C-2.86323399 21.78674203 -5.01710093 21.38438253 -8 21.125 C-9 20.125 -9 20.125 -9.01953125 17.90234375 C-7.73791319 0.32241305 -7.73791319 0.32241305 0 0 Z " fill="#D7E0E8" transform="translate(219,267.875)"/>
<path d="M0 0 C2 2 2 2 2.25 5.53125 C2.12841495 10.33385957 1.12201205 14.84516621 0 19.5 C-0.19078125 20.32242187 -0.3815625 21.14484375 -0.578125 21.9921875 C-1.04427304 23.99662407 -1.52102976 25.99858863 -2 28 C-3.32 28 -4.64 28 -6 28 C-5.01 23.38 -4.02 18.76 -3 14 C-5.64 14 -8.28 14 -11 14 C-11 13.01 -11 12.02 -11 11 C-6.545 10.505 -6.545 10.505 -2 10 C-2 7.69 -2 5.38 -2 3 C-6.83062066 4.09372543 -9.32190529 4.77142941 -12 9 C-12.66 9 -13.32 9 -14 9 C-13.52048204 4.68433833 -12.29764982 2.7980059 -9 0 C-5.88135455 -1.55932272 -3.33704665 -0.65549131 0 0 Z " fill="#2C5E9A" transform="translate(181,265)"/>
<path d="M0 0 C0.99 0 1.98 0 3 0 C1.83328917 7.43560483 0.17420132 14.74350006 -1.5625 22.0625 C-1.78446045 23.00311279 -2.0064209 23.94372559 -2.23510742 24.9128418 C-2.44756104 25.79883057 -2.66001465 26.68481934 -2.87890625 27.59765625 C-3.0704126 28.39695557 -3.26191895 29.19625488 -3.45922852 30.01977539 C-4 32 -4 32 -5 34 C-12.42937127 34.48717189 -18.24034638 33.16605999 -25 30 C-25.66 29.34 -26.32 28.68 -27 28 C-27 27.34 -27 26.68 -27 26 C-26.39414063 26.20496094 -25.78828125 26.40992187 -25.1640625 26.62109375 C-19.09658479 28.5720212 -13.35696876 29.6077615 -7 30 C-6.8865625 29.05640625 -6.773125 28.1128125 -6.65625 27.140625 C-5.95803814 22.25805895 -4.72129082 17.52350241 -3.5 12.75 C-3.16162109 11.40421875 -3.16162109 11.40421875 -2.81640625 10.03125 C-1.96016337 6.64681068 -1.10442617 3.31327851 0 0 Z " fill="#567EAA" transform="translate(132,90)"/>
<path d="M0 0 C3.0625 0.1875 3.0625 0.1875 5.0625 2.1875 C5.54592949 7.31185256 4.85386622 9.9397688 2.0625 14.1875 C2.3925 14.8475 2.7225 15.5075 3.0625 16.1875 C3.66123168 21.45633876 2.31650021 24.0721468 -0.9375 28.1875 C-3.34295638 29.39022819 -4.88746953 29.28821472 -7.5625 29.25 C-8.78839844 29.23646484 -8.78839844 29.23646484 -10.0390625 29.22265625 C-10.66554688 29.21105469 -11.29203125 29.19945312 -11.9375 29.1875 C-11.9375 28.1975 -11.9375 27.2075 -11.9375 26.1875 C-8.91015625 25.94335938 -8.91015625 25.94335938 -5.8828125 25.69921875 C-3.54230784 25.31356964 -3.54230784 25.31356964 -1.9375 22.1875 C-1.77036431 19.56218476 -1.77036431 19.56218476 -1.9375 17.1875 C-4.2475 16.8575 -6.5575 16.5275 -8.9375 16.1875 C-8.6075 15.1975 -8.2775 14.2075 -7.9375 13.1875 C-5 12.0625 -5 12.0625 -1.9375 11.1875 C-1.2775 10.8575 -0.6175 10.5275 0.0625 10.1875 C0.39647787 7.31336875 0.39647787 7.31336875 0.0625 4.1875 C-1.81827873 2.27493288 -1.81827873 2.27493288 -3.9375 1.1875 C-2.9375 0.1875 -2.9375 0.1875 0 0 Z " fill="#2D5F9B" transform="translate(86.9375,229.8125)"/>
<path d="M0 0 C1.4540625 0.0309375 1.4540625 0.0309375 2.9375 0.0625 C3.31813221 2.3885857 3.65019945 4.72305264 3.9375 7.0625 C2.9375 8.0625 2.9375 8.0625 0.87109375 8.16015625 C0.04738281 8.14855469 -0.77632812 8.13695312 -1.625 8.125 C-2.45128906 8.11597656 -3.27757812 8.10695313 -4.12890625 8.09765625 C-4.76699219 8.08605469 -5.40507812 8.07445312 -6.0625 8.0625 C-6.0625 9.0525 -6.0625 10.0425 -6.0625 11.0625 C-3.4225 11.0625 -0.7825 11.0625 1.9375 11.0625 C1.9375 11.3925 1.9375 11.7225 1.9375 12.0625 C-1.0325 12.0625 -4.0025 12.0625 -7.0625 12.0625 C-8.3825 16.3525 -9.7025 20.6425 -11.0625 25.0625 C-12.0525 25.0625 -13.0425 25.0625 -14.0625 25.0625 C-13.45950836 17.82660027 -11.9474413 11.06879124 -10.0625 4.0625 C-9.7325 4.7225 -9.4025 5.3825 -9.0625 6.0625 C-8.258125 5.258125 -7.45375 4.45375 -6.625 3.625 C-3.0625 0.0625 -3.0625 0.0625 0 0 Z " fill="#3A6AA2" transform="translate(176.0625,267.9375)"/>
<path d="M0 0 C1.32 0 2.64 0 4 0 C3.34846336 6.28110606 2.10367793 12.25522057 0.5625 18.375 C0.34529297 19.27605469 0.12808594 20.17710937 -0.09570312 21.10546875 C-0.31033203 21.96527344 -0.52496094 22.82507813 -0.74609375 23.7109375 C-0.93872803 24.48743652 -1.1313623 25.26393555 -1.32983398 26.06396484 C-2 28 -2 28 -4 30 C-7.53571429 29.46428571 -7.53571429 29.46428571 -9 28 C-9.12494616 26.37860563 -9.17571624 24.75115878 -9.1875 23.125 C-9.20167969 22.24070313 -9.21585938 21.35640625 -9.23046875 20.4453125 C-9 18 -9 18 -7 15 C-6.67 17.64 -6.34 20.28 -6 23 C-5.34 23 -4.68 23 -4 23 C-3.8453125 21.205625 -3.8453125 21.205625 -3.6875 19.375 C-2.9741815 12.81876379 -1.45310124 6.42471808 0 0 Z " fill="#2D5F9B" transform="translate(229,230)"/>
<path d="M0 0 C0.99 0 1.98 0 3 0 C3.39054663 5.7280172 2.2198351 10.5264143 0.65625 16.03515625 C-0.02540991 19.11479835 -0.11210671 21.856341 0 25 C2.31 25.33 4.62 25.66 7 26 C7 27.32 7 28.64 7 30 C-0.22891566 30.48192771 -0.22891566 30.48192771 -3.5 28.4375 C-5.8496884 24.61925634 -5.40004173 20.98024771 -4.52539062 16.65063477 C-3.89315657 14.10748823 -3.20977246 11.5850697 -2.5 9.0625 C-2.26152344 8.18787109 -2.02304688 7.31324219 -1.77734375 6.41210938 C-1.19273616 4.27244561 -0.60015656 2.13534428 0 0 Z " fill="#31639D" transform="translate(98,230)"/>
<path d="M0 0 C4.95 0 9.9 0 15 0 C15 0.99 15 1.98 15 3 C13.02 3.33 11.04 3.66 9 4 C8.85377197 4.65597168 8.70754395 5.31194336 8.55688477 5.98779297 C7.89478972 8.95080618 7.22869581 11.91290623 6.5625 14.875 C6.33240234 15.90753906 6.10230469 16.94007813 5.86523438 18.00390625 C5.64287109 18.99003906 5.42050781 19.97617187 5.19140625 20.9921875 C4.98717041 21.90339355 4.78293457 22.81459961 4.57250977 23.75341797 C4 26 4 26 3 28 C2.01 28 1.02 28 0 28 C0.61419174 19.40131562 2.80907021 11.30515248 5 3 C3.35 3 1.7 3 0 3 C0 2.01 0 1.02 0 0 Z " fill="#285A98" transform="translate(186,265)"/>
<path d="M0 0 C0.79019531 0.04511719 1.58039063 0.09023438 2.39453125 0.13671875 C2.98621094 0.19472656 3.57789062 0.25273437 4.1875 0.3125 C4.1875 1.3025 4.1875 2.2925 4.1875 3.3125 C2.20182292 3.44270833 0.21614583 3.57291667 -1.76953125 3.703125 C-4.58335745 4.54243071 -5.23580066 5.87041012 -6.8125 8.3125 C-7.6585436 10.60952742 -7.6585436 10.60952742 -8.19921875 13.078125 C-8.5230957 14.41230469 -8.5230957 14.41230469 -8.85351562 15.7734375 C-9.06685547 16.69382812 -9.28019531 17.61421875 -9.5 18.5625 C-9.72494141 19.49835938 -9.94988281 20.43421875 -10.18164062 21.3984375 C-10.73384047 23.70122835 -11.27711834 26.00575171 -11.8125 28.3125 C-12.8025 28.3125 -13.7925 28.3125 -14.8125 28.3125 C-14.37622782 22.96816576 -13.34278728 17.82791004 -12.0625 12.625 C-11.75828125 11.36300781 -11.4540625 10.10101563 -11.140625 8.80078125 C-9.04724367 3.30257676 -6.20983022 -0.46342017 0 0 Z " fill="#31629D" transform="translate(77.8125,264.6875)"/>
<path d="M0 0 C2.3125 0.5 2.3125 0.5 4.3125 2.5 C4.4375 6.125 4.4375 6.125 4.3125 9.5 C0.6825 9.5 -2.9475 9.5 -6.6875 9.5 C-7.0175 10.82 -7.3475 12.14 -7.6875 13.5 C-4.3875 13.5 -1.0875 13.5 2.3125 13.5 C1.9825 14.49 1.6525 15.48 1.3125 16.5 C1.3125 15.84 1.3125 15.18 1.3125 14.5 C-1.9875 14.5 -5.2875 14.5 -8.6875 14.5 C-8.35991472 8.16668452 -7.38388476 1.373746 0 0 Z " fill="#A9BED1" transform="translate(199.6875,232.5)"/>
<path d="M0 0 C0.33 0.99 0.66 1.98 1 3 C2.7015625 2.9690625 2.7015625 2.9690625 4.4375 2.9375 C8 3 8 3 9 4 C8.4 10.6 8.4 10.6 6 13 C3.31160615 13.26991906 0.70858064 13.08737357 -2 13 C-2.33 13.66 -2.66 14.32 -3 15 C-2.44854729 9.76119922 -1.57077907 5.02649303 0 0 Z " fill="#B8C9D9" transform="translate(77,243)"/>
<path d="M0 0 C-1.32 5.28 -2.64 10.56 -4 16 C-8 15 -8 15 -9.25 13.3125 C-10.22696861 10.30018012 -10.38625228 8.15439358 -10 5 C-7.03010931 -0.25442198 -6.45909437 0 0 0 Z " fill="#3C689B" transform="translate(116,72)"/>
<path d="M0 0 C0.99 0 1.98 0 3 0 C2.35227461 5.89699986 1.31464049 11.5924871 0 17.375 C-0.17789063 18.18066406 -0.35578125 18.98632812 -0.5390625 19.81640625 C-1.86754369 25.73508739 -1.86754369 25.73508739 -3 28 C-3.99 28 -4.98 28 -6 28 C-5.42100187 21.40474547 -4.20265263 15.3108382 -2.4375 8.9375 C-2.20353516 8.07189453 -1.96957031 7.20628906 -1.72851562 6.31445312 C-1.1582666 4.20802305 -0.57998166 2.10377111 0 0 Z " fill="#34659E" transform="translate(204,265)"/>
<path d="M0 0 C2.375 0.375 2.375 0.375 4.375 2.375 C4.5625 5.4375 4.5625 5.4375 4.375 8.375 C3.375 9.375 3.375 9.375 0.87109375 9.47265625 C-0.64291016 9.45525391 -0.64291016 9.45525391 -2.1875 9.4375 C-3.19941406 9.42847656 -4.21132812 9.41945312 -5.25390625 9.41015625 C-6.03636719 9.39855469 -6.81882812 9.38695312 -7.625 9.375 C-6.79327475 4.35969674 -5.52873798 0.78981971 0 0 Z " fill="#AEC1D3" transform="translate(122.625,232.625)"/>
<path d="M0 0 C0.99 0 1.98 0 3 0 C3 5.28 3 10.56 3 16 C4.32 15.34 5.64 14.68 7 14 C6.44271087 17.34373475 5.64826111 20.03312999 4 23 C2.68 22.67 1.36 22.34 0 22 C0 14.74 0 7.48 0 0 Z " fill="#2C5E9A" transform="translate(164,237)"/>
<path d="M0 0 C1.32 0 2.64 0 4 0 C4 1.65 4 3.3 4 5 C3.34 5 2.68 5 2 5 C0.35 10.61 -1.3 16.22 -3 22 C-3.99 22 -4.98 22 -6 22 C-4.57142857 4.57142857 -4.57142857 4.57142857 0 0 Z " fill="#33649E" transform="translate(124,271)"/>
<path d="M0 0 C1 2 1 2 0.44140625 3.9453125 C0.15136719 4.66460937 -0.13867188 5.38390625 -0.4375 6.125 C-0.72496094 6.84945313 -1.01242188 7.57390625 -1.30859375 8.3203125 C-1.53675781 8.87460937 -1.76492187 9.42890625 -2 10 C-2.33 9.34 -2.66 8.68 -3 8 C-5.97 8 -8.94 8 -12 8 C-12.125 5.625 -12.125 5.625 -12 3 C-9.50494038 0.50494038 -8.32671112 0.64051624 -4.875 0.375 C-3.96492188 0.30023438 -3.05484375 0.22546875 -2.1171875 0.1484375 C-1.06917969 0.07496094 -1.06917969 0.07496094 0 0 Z " fill="#D2DCE5" transform="translate(83,268)"/>
<path d="M0 0 C0.38063221 2.3260857 0.71269945 4.66055264 1 7 C-0.66342837 8.66342837 -2.7825709 8.36048097 -5.0625 8.5625 C-5.98160156 8.64628906 -6.90070313 8.73007812 -7.84765625 8.81640625 C-8.55792969 8.87699219 -9.26820313 8.93757813 -10 9 C-9.40425532 3.63829787 -9.40425532 3.63829787 -7.8125 1.125 C-5.19985125 -0.49664405 -3.00479298 -0.20031953 0 0 Z " fill="#CAD6E2" transform="translate(179,268)"/>
<path d="M0 0 C1 1 1 1 1.25 3.9375 C1.1675 4.948125 1.085 5.95875 1 7 C-2.6441774 9.4294516 -4.71241272 9.16179575 -9 9 C-8.4 3.6 -8.4 3.6 -6.75 1.125 C-4.39245761 -0.39056296 -2.74727982 -0.28918735 0 0 Z " fill="#AFC2D4" transform="translate(87,233)"/>
<path d="M0 0 C0.99 0 1.98 0 3 0 C3.42765417 6.41481258 1.85743168 11.88595404 0 18 C-1.32 18.33 -2.64 18.66 -4 19 C-3.46048934 12.31006781 -2.11293829 6.36539272 0 0 Z " fill="#35659F" transform="translate(117,265)"/>
<path d="M0 0 C1.32 0.33 2.64 0.66 4 1 C3.52434234 3.45906037 3.04463948 5.91720993 2.5625 8.375 C2.42779297 9.07367188 2.29308594 9.77234375 2.15429688 10.4921875 C1.11328125 15.7734375 1.11328125 15.7734375 0 18 C-0.99 18 -1.98 18 -3 18 C-2.41509121 11.85845775 -1.45933748 5.99320151 0 0 Z " fill="#3768A0" transform="translate(189,275)"/>
<path d="M0 0 C0.33 0 0.66 0 1 0 C0.95359375 0.89203125 0.9071875 1.7840625 0.859375 2.703125 C0.82328125 3.87359375 0.7871875 5.0440625 0.75 6.25 C0.70359375 7.41015625 0.6571875 8.5703125 0.609375 9.765625 C1.07209511 13.59694748 2.09120297 14.59508907 5 17 C5 17.33 5 17.66 5 18 C0.49740076 18.36507561 0.49740076 18.36507561 -1.64453125 16.79296875 C-4.22794237 13.37571888 -3.50038378 9.08105216 -3 5 C-1.5625 1.875 -1.5625 1.875 0 0 Z " fill="#2A5C99" transform="translate(83,275)"/>
<path d="M0 0 C1.5625 1.0625 1.5625 1.0625 3 3 C2.90267878 8.25534613 1.77061821 11.33412118 -2 15 C-4.75 16.3125 -4.75 16.3125 -7 17 C-7 16.01 -7 15.02 -7 14 C-7.99 13.67 -8.98 13.34 -10 13 C-9.071875 12.835 -8.14375 12.67 -7.1875 12.5 C-3.65717386 10.83867005 -3.45158904 10.50714263 -2.1875 7.0625 C-1.77170851 5.7143276 -1.37440468 4.36024723 -1 3 C-0.67 2.01 -0.34 1.02 0 0 Z " fill="#3C6BA2" transform="translate(222,276)"/>
<path d="M0 0 C0.33 0 0.66 0 1 0 C0.88487847 1.72985242 0.75744323 3.45888751 0.625 5.1875 C0.55539063 6.15042969 0.48578125 7.11335938 0.4140625 8.10546875 C-0.00215853 11.01508938 -0.79874096 13.32890774 -2 16 C-2.66 15.67 -3.32 15.34 -4 15 C-3.91245449 13.24908981 -3.80426627 11.49920449 -3.6875 9.75 C-3.62949219 8.77546875 -3.57148437 7.8009375 -3.51171875 6.796875 C-2.9517383 3.73621851 -2.0962563 2.26331014 0 0 Z " fill="#CAD6E2" transform="translate(121,270)"/>
<path d="M0 0 C1.3805087 3.76668598 0.59568159 6.44789173 -0.4375 10.25 C-0.72496094 11.32765625 -1.01242188 12.4053125 -1.30859375 13.515625 C-1.53675781 14.33546875 -1.76492187 15.1553125 -2 16 C-2.99 15.34 -3.98 14.68 -5 14 C-4.55037804 12.03964825 -4.09001752 10.08175691 -3.625 8.125 C-3.36976563 7.03445313 -3.11453125 5.94390625 -2.8515625 4.8203125 C-2 2 -2 2 0 0 Z " fill="#D2DCE6" transform="translate(228,272)"/>
<path d="M0 0 C0.99 0 1.98 0 3 0 C3 4.29 3 8.58 3 13 C2.01 13 1.02 13 0 13 C0 8.71 0 4.42 0 0 Z " fill="#245796" transform="translate(164,237)"/>
<path d="M0 0 C0.66 0.33 1.32 0.66 2 1 C1.09729807 4.69287153 0.59508949 6.55368289 -2.5 8.875 C-5 10 -5 10 -7 10 C-5.33248852 6.05860922 -2.77289351 3.2107188 0 0 Z " fill="#2C5E9A" transform="translate(114,283)"/>
<path d="M0 0 C0.66 0.33 1.32 0.66 2 1 C2.17558828 5.47750118 2.25891958 9.04689074 0 13 C-2.078125 14.13671875 -2.078125 14.13671875 -4 15 C-3.79503906 14.41992188 -3.59007812 13.83984375 -3.37890625 13.2421875 C-1.85990187 8.8378016 -0.5952849 4.64322223 0 0 Z " fill="#CDD9E4" transform="translate(163,272)"/>
<path d="M0 0 C2.64 0 5.28 0 8 0 C8 1.32 8 2.64 8 4 C5.03 4 2.06 4 -1 4 C-0.67 2.68 -0.34 1.36 0 0 Z " fill="#31639E" transform="translate(71,276)"/>
<path d="M0 0 C0.99 0 1.98 0 3 0 C2.34 3.96 1.68 7.92 1 12 C0.01 11.34 -0.98 10.68 -2 10 C-1.85950482 8.52031676 -1.71245174 7.04125484 -1.5625 5.5625 C-1.48128906 4.73878906 -1.40007812 3.91507812 -1.31640625 3.06640625 C-1 1 -1 1 0 0 Z " fill="#33649E" transform="translate(139,265)"/>
<path d="M0 0 C0.99 0 1.98 0 3 0 C2.38675022 6.50044763 2.38675022 6.50044763 0.5 8.9375 C-1 10 -1 10 -2 10 C-1.85950482 8.52031676 -1.71245174 7.04125484 -1.5625 5.5625 C-1.48128906 4.73878906 -1.40007812 3.91507813 -1.31640625 3.06640625 C-1 1 -1 1 0 0 Z " fill="#30629C" transform="translate(137,230)"/>
<path d="M0 0 C0.66 0.66 1.32 1.32 2 2 C-2.625 6.875 -2.625 6.875 -6 8 C-6.33 7.01 -6.66 6.02 -7 5 C-7.66 4.67 -8.32 4.34 -9 4 C-7.6078125 3.566875 -7.6078125 3.566875 -6.1875 3.125 C-2.90208333 2.1125 -2.90208333 2.1125 0 0 Z " fill="#3E6CA3" transform="translate(94,285)"/>
<path d="M0 0 C0.99 0 1.98 0 3 0 C2.34 3.3 1.68 6.6 1 10 C0.01 10.33 -0.98 10.66 -2 11 C-1.125 3.375 -1.125 3.375 0 0 Z " fill="#4973A2" transform="translate(132,90)"/>
<path d="M0 0 C0.66 0.33 1.32 0.66 2 1 C2.33 1.99 2.66 2.98 3 4 C5.64 4.33 8.28 4.66 11 5 C11 5.33 11 5.66 11 6 C6.71 6 2.42 6 -2 6 C-2 4.35 -2 2.7 -2 1 C-1.34 0.67 -0.68 0.34 0 0 Z " fill="#4774A7" transform="translate(72,254)"/>
<path d="M0 0 C0.99 0.99 1.98 1.98 3 3 C2.6875 6.6875 2.6875 6.6875 2 10 C0.68 10 -0.64 10 -2 10 C-1.34 6.7 -0.68 3.4 0 0 Z " fill="#3C6BA2" transform="translate(177,283)"/>
<path d="M0 0 C0.99 0 1.98 0 3 0 C4.05404945 3.98196457 3.84098656 6.98195309 3 11 C0.39665076 8.28817788 0.00543309 7.10866187 -0.1875 3.25 C-0.125625 2.1775 -0.06375 1.105 0 0 Z " fill="#ACC1D4" transform="translate(182,249)"/>
<path d="M0 0 C1.32 0 2.64 0 4 0 C3.67 2.64 3.34 5.28 3 8 C2.01 7.34 1.02 6.68 0 6 C-0.1875 2.875 -0.1875 2.875 0 0 Z " fill="#3B6BA2" transform="translate(229,230)"/>
<path d="M0 0 C0.97079451 3.0202496 1.32756618 5.06038917 0 8 C-2.5625 9.75 -2.5625 9.75 -5 11 C-3.77472971 6.94718288 -2.30119506 3.55639236 0 0 Z " fill="#DAE2EA" transform="translate(99,279)"/>
<path d="M0 0 C1.32 0 2.64 0 4 0 C4 1.65 4 3.3 4 5 C2.35 5 0.7 5 -1 5 C-1 1 -1 1 0 0 Z " fill="#406FA4" transform="translate(124,271)"/>
<path d="M0 0 C0 0.99 0 1.98 0 3 C-4.455 3.495 -4.455 3.495 -9 4 C-8.67 3.01 -8.34 2.02 -8 1 C-5.07175348 0.02391783 -3.04386724 -0.08226668 0 0 Z " fill="#255897" transform="translate(82,265)"/>
<path d="M0 0 C0.8971875 0.309375 0.8971875 0.309375 1.8125 0.625 C0.8225 0.955 -0.1675 1.285 -1.1875 1.625 C-1.496875 2.285 -1.80625 2.945 -2.125 3.625 C-3.1875 5.625 -3.1875 5.625 -5.3125 6.375 C-6.240625 6.49875 -6.240625 6.49875 -7.1875 6.625 C-4.6484375 -0.796875 -4.6484375 -0.796875 0 0 Z " fill="#3A6AA1" transform="translate(75.1875,265.375)"/>
<path d="M0 0 C1.5625 1.0625 1.5625 1.0625 3 3 C2.6875 6.6875 2.6875 6.6875 2 10 C0.4375 8.9375 0.4375 8.9375 -1 7 C-0.6875 3.3125 -0.6875 3.3125 0 0 Z " fill="#4673A7" transform="translate(222,276)"/>
<path d="M0 0 C0.33 0 0.66 0 1 0 C1.125 3.375 1.125 3.375 1 7 C0.34 7.66 -0.32 8.32 -1 9 C-2 8 -2 8 -2.1875 5.0625 C-2 2 -2 2 0 0 Z " fill="#D7E0E9" transform="translate(119,277)"/>
<path d="M0 0 C2.1519437 3.22791555 2.20086443 4.28400809 2 8 C0.02 8.99 0.02 8.99 -2 10 C-1.34 6.7 -0.68 3.4 0 0 Z " fill="#A3BACF" transform="translate(216,236)"/>
<path d="M0 0 C0.66 0.33 1.32 0.66 2 1 C-0.97 3.97 -3.94 6.94 -7 10 C-7 7 -7 7 -4.625 4.4375 C-3.75875 3.633125 -2.8925 2.82875 -2 2 C-1.34 1.34 -0.68 0.68 0 0 Z " fill="#4582BB" transform="translate(102,52)"/>
<path d="M0 0 C0.99 0 1.98 0 3 0 C2.67 2.64 2.34 5.28 2 8 C1.01 7.34 0.02 6.68 -1 6 C-0.67 4.02 -0.34 2.04 0 0 Z " fill="#2E619C" transform="translate(254,230)"/>
<path d="M0 0 C0.99 0 1.98 0 3 0 C2.67 2.31 2.34 4.62 2 7 C1.01 6.67 0.02 6.34 -1 6 C-0.67 4.02 -0.34 2.04 0 0 Z " fill="#295C99" transform="translate(152,230)"/>
<path d="M0 0 C0.66 0.33 1.32 0.66 2 1 C1.67 2.65 1.34 4.3 1 6 C0.01 6 -0.98 6 -2 6 C-1.125 1.125 -1.125 1.125 0 0 Z " fill="#2C5D9A" transform="translate(188,287)"/>
</svg>
