<?xml version="1.0" encoding="UTF-8"?>
<svg xmlns="http://www.w3.org/2000/svg" viewBox="0 0 389 129" fill="currentColor" role="img" aria-label="dumbbell">
<path d="M0 2370 l0 -2370 2370 0 2370 0 0 2370 0 2370 -2370 0 -2370 0 0
-2370z m2516 1870 c325 -27 631 -132 894 -309 986 -660 1122 -2050 283 -2887
-277 -275 -606 -445 -1008 -521 -128 -24 -417 -28 -559 -9 -722 101 -1309 589
-1536 1276 -122 371 -120 794 5 1176 229 700 879 1212 1615 1273 140 12 165
12 306 1z"/>
<path d="M1341 3214 c-12 -15 -25 -39 -29 -53 -4 -14 -7 -388 -7 -831 0 -775
1 -806 19 -837 11 -17 30 -36 43 -42 32 -15 245 -14 277 0 14 7 33 28 43 48
17 34 18 88 21 801 2 421 0 788 -3 817 -4 29 -16 67 -29 85 l-22 33 -146 3
-146 3 -21 -27z"/>
<path d="M3102 3233 c-7 -2 -21 -22 -32 -44 -19 -37 -20 -62 -20 -844 0 -867
-1 -852 51 -889 18 -13 48 -16 141 -16 64 0 128 5 141 11 13 6 33 27 43 47 18
35 19 75 22 792 2 415 0 783 -3 817 -4 39 -15 75 -29 95 l-22 33 -139 2 c-77
1 -146 -1 -153 -4z"/>
<path d="M1012 2918 c-11 -13 -25 -36 -31 -51 -7 -19 -11 -198 -11 -528 0
-476 1 -502 20 -538 24 -47 33 -51 124 -51 63 0 75 3 94 23 13 13 27 39 32 58
6 20 10 233 10 519 0 454 -2 488 -19 527 -25 53 -44 63 -129 63 -58 0 -72 -3
-90 -22z"/>
<path d="M3542 2918 c-11 -13 -25 -36 -31 -51 -7 -19 -11 -197 -11 -522 0
-613 -4 -595 135 -595 78 0 98 9 122 53 16 29 18 76 21 507 4 508 0 557 -43
604 -22 23 -31 26 -98 26 -63 0 -76 -3 -95 -22z"/>
<path d="M875 2646 c-93 -41 -150 -172 -143 -330 3 -80 8 -102 37 -160 35 -72
94 -126 138 -126 l23 0 0 315 c0 341 3 326 -55 301z"/>
<path d="M3817 2653 c-4 -3 -7 -145 -7 -315 l0 -308 23 0 c44 0 103 54 139
127 32 65 33 71 33 188 -1 129 -9 161 -62 238 -34 48 -107 89 -126 70z"/>
<path d="M1740 2365 l0 -245 633 2 632 3 3 243 2 242 -635 0 -635 0 0 -245z"/>
</g>
</svg>
