<?xml version="1.0" encoding="UTF-8"?>
<!-- <svg version="1.1" xmlns="http://www.w3.org/2000/svg" width="389" height="129">-->
<svg xmlns="http://www.w3.org/2000/svg" viewBox="0 0 389 129" fill="currentColor" role="img" aria-label="InspireHEP">
<path d="M0 0 C128.37 0 256.74 0 389 0 C389 42.57 389 85.14 389 129 C260.63 129 132.26 129 0 129 C0 86.43 0 43.86 0 0 Z " fill="#101727" transform="translate(0,0)"/>
<path d="M0 0 C9 0 9 0 11.30688477 2.11132812 C11.84627686 3.07490234 12.38566895 4.03847656 12.94140625 5.03125 C13.54404297 6.06894531 14.14667969 7.10664062 14.76757812 8.17578125 C15.35990234 9.27277344 15.95222656 10.36976562 16.5625 11.5 C17.18962891 12.59699219 17.81675781 13.69398437 18.46289062 14.82421875 C20.00543986 17.53251131 21.50678004 20.26420014 23 23 C23.33 15.41 23.66 7.82 24 0 C26.64 0 29.28 0 32 0 C32 12.21 32 24.42 32 37 C23 37 23 37 21.01611328 35.51879883 C20.42419189 34.49822388 20.42419189 34.49822388 19.8203125 33.45703125 C19.3665625 32.71259766 18.9128125 31.96816406 18.4453125 31.20117188 C18.00960937 30.41291016 17.57390625 29.62464844 17.125 28.8125 C16.66609375 28.04357422 16.2071875 27.27464844 15.734375 26.48242188 C14.87737737 25.03964407 14.0333983 23.58898764 13.20751953 22.12817383 C11.84591822 19.72844098 10.41954925 17.36591542 9 15 C8.67 22.26 8.34 29.52 8 37 C5.36 37 2.72 37 0 37 C0 24.79 0 12.58 0 0 Z " fill="#F6F6F6" transform="translate(87,43)"/>
<path d="M0 0 C3.17625 -0.061875 6.3525 -0.12375 9.625 -0.1875 C11.1092749 -0.22846802 11.1092749 -0.22846802 12.62353516 -0.27026367 C18.77371632 -0.32807314 23.26726487 0.35835604 27.875 4.8125 C29.42388547 7.82422174 29.46964169 9.64541648 29 13 C27 16.25 27 16.25 25 19 C24.78330885 21.12026509 24.78330885 21.12026509 26.45703125 22.703125 C28.50640205 25.75383394 28.50527764 28.10555286 28.6875 31.75 C28.75324219 32.92046875 28.81898438 34.0909375 28.88671875 35.296875 C28.92410156 36.18890625 28.96148437 37.0809375 29 38 C27.68 38 26.36 38 25 38 C24.87882812 37.08476563 24.75765625 36.16953125 24.6328125 35.2265625 C24.46523437 34.03804687 24.29765625 32.84953125 24.125 31.625 C23.96257812 30.44164063 23.80015625 29.25828125 23.6328125 28.0390625 C23.2697415 24.90433341 23.2697415 24.90433341 21 23 C18.10032243 22.69324768 15.28216822 22.48826629 12.375 22.375 C11.57320312 22.33632812 10.77140625 22.29765625 9.9453125 22.2578125 C7.96392444 22.16346069 5.98199355 22.08063785 4 22 C4 27.28 4 32.56 4 38 C2.68 38 1.36 38 0 38 C0 25.46 0 12.92 0 0 Z " fill="#E1E2E3" transform="translate(207,42)"/>
<path d="M0 0 C3.17625 -0.0825 6.3525 -0.165 9.625 -0.25 C10.6145166 -0.28641602 11.6040332 -0.32283203 12.62353516 -0.36035156 C18.25795762 -0.43096692 21.59081997 0.13327429 26 4 C28.66836411 8.00254616 28.8340238 11.29313299 28 16 C25.81840855 18.75569447 24.12822506 20.43588747 21 22 C18.11629667 22.07194869 15.25760336 22.09291708 12.375 22.0625 C11.57320312 22.05798828 10.77140625 22.05347656 9.9453125 22.04882812 C7.96350994 22.03703168 5.98174567 22.01909605 4 22 C4 27.28 4 32.56 4 38 C2.68 38 1.36 38 0 38 C0 25.46 0 12.92 0 0 Z " fill="#E8E9EA" transform="translate(162,42)"/>
<path d="M0 0 C5.73561236 0.05951349 9.53485715 0.97235715 13.6875 5.125 C15.03562842 7.6714648 15.04931032 9.40827618 14.8125 12.25 C12.9375 12.0625 12.9375 12.0625 10.8125 11.25 C10.13117549 9.58927151 9.46507873 7.922233 8.8125 6.25 C5.8152683 3.82915902 2.43138635 3.90427659 -1.28125 3.98046875 C-3.87858832 4.34771536 -5.35436846 5.41686846 -7.1875 7.25 C-6.8575 9.56 -6.5275 11.87 -6.1875 14.25 C-5.01832031 14.56453125 -3.84914062 14.8790625 -2.64453125 15.203125 C-1.09617848 15.63478698 0.45198903 16.06711386 2 16.5 C2.76892578 16.70496094 3.53785156 16.90992187 4.33007812 17.12109375 C8.95607271 18.43146131 12.28095306 19.82131365 15.8125 23.25 C17.26397903 26.15295805 17.18489025 28.02261779 16.8125 31.25 C14.03309026 35.37940875 11.73640846 38.15579812 6.8125 39.25 C-0.06245469 39.99956917 -4.6187195 39.45499752 -10.1875 35.25 C-12.87749919 31.86580747 -13.55555901 29.54402173 -13.1875 25.25 C-11.8675 25.25 -10.5475 25.25 -9.1875 25.25 C-9.02314453 26.09884766 -9.02314453 26.09884766 -8.85546875 26.96484375 C-8.69691406 27.69832031 -8.53835937 28.43179688 -8.375 29.1875 C-8.14876953 30.28384766 -8.14876953 30.28384766 -7.91796875 31.40234375 C-7.67691406 32.01207031 -7.43585938 32.62179688 -7.1875 33.25 C-4.02550849 34.30399717 -1.57289814 34.48445913 1.75 34.5625 C3.31041016 34.61857422 3.31041016 34.61857422 4.90234375 34.67578125 C8.51258853 34.14757094 9.64834068 33.13726745 11.8125 30.25 C12.14698259 27.082168 12.14698259 27.082168 11.8125 24.25 C11.20664063 24.06824219 10.60078125 23.88648437 9.9765625 23.69921875 C8.21408938 23.17047682 6.45242491 22.63903486 4.69140625 22.10546875 C2.8092743 21.54619209 0.92125947 21.00625259 -0.97265625 20.48828125 C-1.84792969 20.24464844 -2.72320312 20.00101563 -3.625 19.75 C-4.42808594 19.5334375 -5.23117188 19.316875 -6.05859375 19.09375 C-8.4700777 18.1380059 -9.6430448 17.33186752 -11.1875 15.25 C-11.87596703 12.18632172 -11.78668847 9.32691375 -11.1875 6.25 C-8.75 3.25 -8.75 3.25 -6.1875 1.25 C-4.48191557 -0.45558443 -2.32755782 0.03769324 0 0 Z " fill="#E9EAEA" transform="translate(140.1875,41.75)"/>
<path d="M0 0 C8.58 0 17.16 0 26 0 C26 1.32 26 2.64 26 4 C18.74 4 11.48 4 4 4 C4 8.29 4 12.58 4 17 C10.93 17 17.86 17 25 17 C25 17.99 25 18.98 25 20 C18.07 20 11.14 20 4 20 C4 24.95 4 29.9 4 35 C11.26 35 18.52 35 26 35 C26 35.99 26 36.98 26 38 C17.42 38 8.84 38 0 38 C0 25.46 0 12.92 0 0 Z " fill="#E9EAEB" transform="translate(242,42)"/>
<path d="M0 0 C2.58396679 -0.08112454 5.16537568 -0.14054748 7.75 -0.1875 C8.47960937 -0.21263672 9.20921875 -0.23777344 9.9609375 -0.26367188 C13.18696721 -0.30766319 15.5840963 -0.21187547 18.484375 1.265625 C20.56607513 3.6477767 20.48379738 5.88635484 20.53125 8.96484375 C19.72519006 12.05276454 18.6034803 13.15382136 16 15 C13.10550051 15.2906124 10.62050065 15.38186045 7.75 15.25 C6.63238281 15.22292969 6.63238281 15.22292969 5.4921875 15.1953125 C3.66090299 15.14835649 1.83028351 15.07661652 0 15 C0 10.05 0 5.1 0 0 Z " fill="#101624" transform="translate(166,46)"/>
<path d="M0 0 C2.75105422 -0.10812003 5.49785087 -0.18734945 8.25 -0.25 C9.02730469 -0.28351562 9.80460938 -0.31703125 10.60546875 -0.3515625 C16.38132533 -0.45029509 16.38132533 -0.45029509 19.51171875 1.828125 C21 4 21 4 21.5625 7 C21 10 21 10 18.984375 12.171875 C15.04733817 14.58356772 12.19467512 14.45944871 7.6875 14.25 C6.57665039 14.22292969 6.57665039 14.22292969 5.44335938 14.1953125 C3.6283429 14.14847337 1.81399834 14.07673789 0 14 C0 9.38 0 4.76 0 0 Z " fill="#0E1423" transform="translate(211,46)"/>
<path d="M0 0 C2.97 0 5.94 0 9 0 C9 8.58 9 17.16 9 26 C6.03 26 3.06 26 0 26 C0 17.42 0 8.84 0 0 Z " fill="#E6E7E8" transform="translate(72,54)"/>
<path d="M0 0 C3.80470451 0.7133821 5.41196019 1.67868421 8 4.5625 C9.125 7.9375 9.125 7.9375 9 11.5625 C7.0625 15 7.0625 15 4 17.5625 C0.93356467 18.3563795 -0.73642868 18.08052719 -4 17.5625 C-6.5 16.0625 -6.5 16.0625 -8 13.5625 C-8.7152453 8.55578289 -8.81148802 6.70813015 -5.875 2.5625 C-3 0.5625 -3 0.5625 0 0 Z " fill="#25CFF6" transform="translate(299,51.4375)"/>
<path d="M0 0 C1.32 0 2.64 0 4 0 C4 12.54 4 25.08 4 38 C2.68 38 1.36 38 0 38 C0 25.46 0 12.92 0 0 Z " fill="#DEE0E1" transform="translate(195,42)"/>
<path d="M0 0 C2.64 0 5.28 0 8 0 C10 2 10 2 10.3125 5 C10.1578125 6.485 10.1578125 6.485 10 8 C6.77208445 10.1519437 5.71599191 10.20086443 2 10 C2 11.98 2 13.96 2 16 C1.34 16 0.68 16 0 16 C0 10.72 0 5.44 0 0 Z " fill="#D1D3D5" transform="translate(355,52)"/>
<path d="M0 0 C1.8125 1.1875 1.8125 1.1875 3 3 C3.4334014 5.88934264 3.42525784 7.35092224 1.8125 9.8125 C-0.64907776 11.42525784 -2.11065736 11.4334014 -5 11 C-6.8125 9.8125 -6.8125 9.8125 -8 8 C-8.4334014 5.11065736 -8.42525784 3.64907776 -6.8125 1.1875 C-4.35092224 -0.42525784 -2.88934264 -0.4334014 0 0 Z " fill="#25D1F8" transform="translate(294,74)"/>
<path d="M0 0 C3 0.25 3 0.25 5 2.25 C5.25 5.25 5.25 5.25 5 8.25 C3 10.25 3 10.25 0 10.5 C-3 10.25 -3 10.25 -5 8.25 C-5.25 5.25 -5.25 5.25 -5 2.25 C-3 0.25 -3 0.25 0 0 Z " fill="#26D2F9" transform="translate(291,37.75)"/>
<path d="M0 0 C3.40966574 1.41089617 5.09883521 2.83139202 7 6 C7.51171875 9.234375 7.51171875 9.234375 7.6875 12.75 C7.75324219 13.92046875 7.81898438 15.0909375 7.88671875 16.296875 C7.94279297 17.63492188 7.94279297 17.63492188 8 19 C6.68 19 5.36 19 4 19 C3.87882813 18.08476563 3.75765625 17.16953125 3.6328125 16.2265625 C3.46523437 15.03804687 3.29765625 13.84953125 3.125 12.625 C2.96257812 11.44164063 2.80015625 10.25828125 2.6328125 9.0390625 C2.2697415 5.90433341 2.2697415 5.90433341 0 4 C0 2.68 0 1.36 0 0 Z " fill="#E9EAEB" transform="translate(228,61)"/>
<path d="M0 0 C0.66 0 1.32 0 2 0 C2 2.31 2 4.62 2 7 C4.97 7 7.94 7 11 7 C11 4.69 11 2.38 11 0 C11.33 0 11.66 0 12 0 C12 5.28 12 10.56 12 16 C11.67 16 11.34 16 11 16 C11 13.69 11 11.38 11 9 C8.03 9 5.06 9 2 9 C2 11.31 2 13.62 2 16 C1.34 16 0.68 16 0 16 C0 10.72 0 5.44 0 0 Z " fill="#E0E2E3" transform="translate(317,52)"/>
<path d="M0 0 C2.5625 0.1875 2.5625 0.1875 4.5625 2.1875 C4.00694444 6.74305556 4.00694444 6.74305556 2.5625 8.1875 C0.125 8.375 0.125 8.375 -2.4375 8.1875 C-3.0975 7.5275 -3.7575 6.8675 -4.4375 6.1875 C-3.71780303 0.28598485 -3.71780303 0.28598485 0 0 Z " fill="#05DEF5" transform="translate(76.4375,41.8125)"/>
<path d="M0 0 C2.97 0 5.94 0 9 0 C9 0.33 9 0.66 9 1 C6.69 1 4.38 1 2 1 C2 2.98 2 4.96 2 7 C3.98 7 5.96 7 8 7 C8 7.66 8 8.32 8 9 C6.02 9 4.04 9 2 9 C2 10.98 2 12.96 2 15 C4.31 15 6.62 15 9 15 C9 15.33 9 15.66 9 16 C6.03 16 3.06 16 0 16 C0 10.72 0 5.44 0 0 Z " fill="#E2E3E4" transform="translate(338,52)"/>
<path d="M0 0 C1.2065625 0.0309375 1.2065625 0.0309375 2.4375 0.0625 C2.81968767 1.71864657 3.15145102 3.38707024 3.4375 5.0625 C2.4375 6.0625 2.4375 6.0625 -0.125 6.125 C-1.3315625 6.0940625 -1.3315625 6.0940625 -2.5625 6.0625 C-2.94468767 4.40635343 -3.27645102 2.73792976 -3.5625 1.0625 C-2.5625 0.0625 -2.5625 0.0625 0 0 Z " fill="#26C1E3" transform="translate(279.5625,86.9375)"/>
<path d="M0 0 C1.67542976 0.28604898 3.34385343 0.61781233 5 1 C5.5625 2.9375 5.5625 2.9375 6 5 C5 6 5 6 2.4375 6.0625 C1.2309375 6.0315625 1.2309375 6.0315625 0 6 C-0.38218767 4.34385343 -0.71395102 2.67542976 -1 1 C-0.67 0.67 -0.34 0.34 0 0 Z " fill="#26C3E6" transform="translate(277,31)"/>
<path d="M0 0 C1.98 0 3.96 0 6 0 C6.042721 1.66611905 6.04063832 3.33382885 6 5 C5 6 5 6 2.4375 6.0625 C1.2309375 6.0315625 1.2309375 6.0315625 0 6 C0 4.02 0 2.04 0 0 Z " fill="#03030E" transform="translate(357,54)"/>
<path d="M0 0 C0.66 0.99 1.32 1.98 2 3 C0.8553125 2.9690625 0.8553125 2.9690625 -0.3125 2.9375 C-3.10185786 2.87057159 -3.10185786 2.87057159 -6 4 C-7.20882096 6.00016466 -7.20882096 6.00016466 -8 8 C-8.36075949 3.55063291 -8.36075949 3.55063291 -6.8125 1.1875 C-4.36655047 -0.41501866 -2.86618213 -0.4409511 0 0 Z " fill="#26B3D3" transform="translate(294,74)"/>
<path d="M0 0 C1.32 0 2.64 0 4 0 C4 1.65 4 3.3 4 5 C2.68 4.67 1.36 4.34 0 4 C0 2.68 0 1.36 0 0 Z " fill="#101727" transform="translate(358,55)"/>
</svg>
