<?xml version="1.0" encoding="UTF-8"?>
<svg version="1.1" xmlns="http://www.w3.org/2000/svg" width="2048" height="2048">
<path d="M0 0 C2.69988766 0.26503807 5.40065605 0.5194734 8.10162354 0.77325439 C80.80031104 7.69850643 153.08932717 21.9201728 222.55187988 44.59362793 C224.6091781 45.26283968 226.66893073 45.92392543 228.72955322 46.58282471 C270.47848987 59.9493602 311.00319403 76.42975109 350.57965088 95.25323486 C351.80670718 95.8333202 353.03392305 96.41306811 354.2612915 96.99249268 C369.32366403 104.10902787 384.17190916 111.5050598 398.71002197 119.65216064 C401.84118713 121.3991558 404.98481279 123.12225326 408.13043213 124.84307861 C428.79135423 136.17682603 448.91525654 148.26919289 468.57965088 161.25323486 C469.40175049 161.79447998 470.2238501 162.3357251 471.07086182 162.89337158 C482.34174268 170.32276404 493.50250969 177.884528 504.47613525 185.74688721 C506.64782536 187.30205526 508.82465326 188.84986303 511.00152588 190.39776611 C526.73994006 201.63120215 541.88840678 213.57395221 556.83990479 225.82940674 C558.39913415 227.10549791 559.96366188 228.37510868 561.52886963 229.64385986 C571.99719156 238.14077519 582.20608257 246.91770201 592.14215088 256.03057861 C594.22237813 257.9274525 596.32521986 259.78716429 598.45465088 261.62823486 C607.30977841 269.34716477 615.80603058 277.39463237 624.05718994 285.7522583 C626.78773053 288.50600931 629.53304078 291.14570923 632.51715088 293.62823486 C637.13262473 297.54262408 641.12621065 302.04392714 645.22027588 306.48736572 C648.90443251 310.48034718 652.65148941 314.37299481 656.51715088 318.19073486 C660.05488526 321.69247486 663.41743962 325.25231447 666.64605713 329.03839111 C668.67869488 331.36668526 670.77380491 333.62500219 672.88336182 335.88336182 C677.9561803 341.3148087 682.78835466 346.85225268 687.44293213 352.65167236 C689.53847581 355.20310215 691.71928242 357.6365026 693.95465088 360.06573486 C697.93473554 364.43831923 701.59312585 368.99492777 705.21417236 373.66314697 C708.21493869 377.52881268 711.26926241 381.34230623 714.37359619 385.12530518 C721.36824625 393.64938555 728.05907939 402.36212012 734.57965088 411.25323486 C735.08431885 411.94078857 735.58898682 412.62834229 736.10894775 413.33673096 C750.01376372 432.33091998 763.45057544 451.61033152 775.91363525 471.58428955 C777.53986391 474.18949642 779.17624814 476.78809009 780.81402588 479.38604736 C794.27884828 500.83746815 806.71429538 522.88231155 818.57965088 545.25323486 C819.16714111 546.3544165 819.75463135 547.45559814 820.35992432 548.59014893 C830.24343817 567.16442935 839.23200251 586.05881689 847.72155762 605.30853271 C848.54280596 607.16973299 849.36754352 609.02939248 850.19244385 610.88897705 C886.25206568 692.43198486 911.11696076 779.37619323 932.32965088 939.12823486 C932.38881683 939.85680695 932.44798279 940.58537903 932.50894165 941.33602905 C933.97200272 959.64112878 934.73982252 977.91472033 934.78277588 996.27667236 C934.7897561 998.14124575 934.79679706 1000.0058189 934.80389404 1001.87039185 C934.82315211 1007.78967591 934.82806906 1013.70892288 934.82965088 1019.62823486 C934.83024002 1020.63561203 934.83082916 1021.6429892 934.83143616 1022.68089294 C934.84347841 1051.84186095 934.66328954 1080.85782955 931.80749512 1109.90527344 C931.57468597 1112.30439885 931.35632257 1114.70447221 931.1416626 1117.10528564 C926.55437865 1168.09504254 917.81625246 1218.5583397 905.57965088 1268.25323486 C905.38435791 1269.04643127 905.18906494 1269.83962769 904.987854 1270.65686035 C899.03624882 1294.73029306 892.09119459 1318.42005283 884.33099365 1341.97058105 C883.59559917 1344.20478239 882.86502429 1346.44051103 882.13531494 1348.67657471 C869.02673356 1388.73350723 852.79245105 1427.56027969 834.38043213 1465.46026611 C832.63811814 1469.04807681 830.92164819 1472.64478522 829.24761963 1476.26495361 C824.0294406 1487.54227714 818.26993442 1498.44975187 812.22271729 1509.30401611 C810.51631164 1512.36692551 808.8193652 1515.43496515 807.12261963 1518.50323486 C788.18089104 1552.65284736 767.16498498 1585.40619748 744.57965088 1617.25323486 C744.03163818 1618.02699463 743.48362549 1618.80075439 742.91900635 1619.59796143 C731.23041724 1636.06105988 718.80050897 1651.90127565 706.003479 1667.51348877 C704.72738784 1669.07271814 703.45777706 1670.63724586 702.18902588 1672.20245361 C693.68983986 1682.67357308 684.91112407 1692.88598921 675.79449463 1702.82354736 C673.93958271 1704.85838901 672.1253629 1706.91644733 670.32965088 1709.00323486 C661.92785835 1718.65340694 653.04674476 1727.86955827 643.94293213 1736.85479736 C641.96301372 1738.8641691 640.13354106 1740.90106665 638.32965088 1743.06573486 C634.36427202 1747.71742929 629.83425223 1751.75811078 625.3460083 1755.89337158 C621.35289634 1759.57772504 617.46005275 1763.32490954 613.64215088 1767.19073486 C610.14041088 1770.72846925 606.58057128 1774.09102361 602.79449463 1777.31964111 C600.46620048 1779.35227886 598.20788355 1781.44738889 595.94952393 1783.5569458 C590.51807704 1788.62976428 584.98063306 1793.46193864 579.18121338 1798.11651611 C576.62978359 1800.2120598 574.19638315 1802.39286641 571.76715088 1804.62823486 C567.39727769 1808.60585172 562.84355552 1812.2620008 558.17852783 1815.88116455 C553.54571595 1819.47789426 548.99213588 1823.16220975 544.45465088 1826.87823486 C537.95594413 1832.18021725 531.35973877 1837.31393011 524.57965088 1842.25323486 C523.9227124 1842.73228271 523.26577393 1843.21133057 522.58892822 1843.70489502 C517.26906425 1847.57750514 511.92885194 1851.42127836 506.57965088 1855.25323486 C505.52535889 1856.00975342 505.52535889 1856.00975342 504.44976807 1856.78155518 C480.25415555 1874.11316414 455.21819489 1890.14769466 429.57965088 1905.25323486 C428.57482666 1905.84539795 427.57000244 1906.43756104 426.534729 1907.04766846 C412.25940651 1915.43321843 397.83441291 1923.40014358 383.10015869 1930.94805908 C380.83654305 1932.12021031 378.59115898 1933.31835791 376.35308838 1934.53839111 C364.25760113 1941.12729162 351.77479692 1946.86679113 339.24713135 1952.57696533 C335.74766362 1954.17316724 332.25948727 1955.7932035 328.77105713 1957.41339111 C245.2684694 1995.88954587 154.92677711 2021.34642615 4.26806641 2041.99609375 C1.70656695 2042.24109562 -0.85370066 2042.49654398 -3.41400146 2042.75372314 C-60.52541485 2048.36532001 -120.77484781 2048.25537829 -177.86877441 2042.50970459 C-180.57034771 2042.23815786 -183.27283464 2041.97728279 -185.9755249 2041.71710205 C-274.93456044 2033.05150135 -362.4167676 2013.58865327 -496.42034912 1962.25323486 C-497.54747314 1961.76032959 -498.67459717 1961.26742432 -499.83587646 1960.75958252 C-525.6736104 1949.43125175 -551.20113892 1937.47821571 -575.82855225 1923.69171143 C-578.46672938 1922.2274933 -581.11981978 1920.79475202 -583.77972412 1919.37042236 C-619.11942835 1900.4199622 -652.73158889 1878.43550334 -685.42034912 1855.25323486 C-686.58098877 1854.43121582 -686.58098877 1854.43121582 -687.76507568 1853.59259033 C-704.22817414 1841.90400122 -720.06838991 1829.47409295 -735.68060303 1816.67706299 C-737.23983239 1815.40097182 -738.80436012 1814.13136105 -740.36956787 1812.86260986 C-750.84068734 1804.36342384 -761.05310346 1795.58470805 -770.99066162 1786.46807861 C-773.02550327 1784.61316669 -775.08356159 1782.79894688 -777.17034912 1781.00323486 C-786.8205212 1772.60144233 -796.03667252 1763.72032875 -805.02191162 1754.61651611 C-807.03128336 1752.63659771 -809.0681809 1750.80712504 -811.23284912 1749.00323486 C-815.88454355 1745.03785601 -819.92522503 1740.50783621 -824.06048584 1736.01959229 C-827.7448393 1732.02648033 -831.49202379 1728.13363674 -835.35784912 1724.31573486 C-838.89558351 1720.81399487 -842.25813786 1717.25415526 -845.48675537 1713.46807861 C-847.51939312 1711.13978446 -849.61450315 1708.88146753 -851.72406006 1706.62310791 C-856.79687854 1701.19166103 -861.6290529 1695.65421705 -866.28363037 1689.85479736 C-868.37917406 1687.30336757 -870.55998067 1684.86996713 -872.79534912 1682.44073486 C-876.77296597 1678.07086168 -880.42911506 1673.5171395 -884.04827881 1668.85211182 C-887.64500852 1664.21929994 -891.32932401 1659.66571986 -895.04534912 1655.12823486 C-900.34733151 1648.62952812 -905.48104437 1642.03332275 -910.42034912 1635.25323486 C-910.89939697 1634.59629639 -911.37844482 1633.93935791 -911.87200928 1633.26251221 C-915.7446194 1627.94264823 -919.58839261 1622.60243593 -923.42034912 1617.25323486 C-923.92469482 1616.55037354 -924.42904053 1615.84751221 -924.94866943 1615.12335205 C-943.40551081 1589.35687052 -960.56833721 1562.69679059 -976.42034912 1535.25323486 C-976.96046631 1534.31866455 -977.5005835 1533.38409424 -978.05706787 1532.42120361 C-985.73234211 1519.09430226 -992.9921465 1505.58670016 -1000.0355835 1491.91680908 C-1001.31498974 1489.45589192 -1002.61787594 1487.01000275 -1003.93597412 1484.56964111 C-1046.36277252 1405.87807229 -1074.71327586 1318.13399137 -1108.17034912 1135.25323486 C-1108.26544769 1134.42128601 -1108.36054626 1133.58933716 -1108.45852661 1132.73217773 C-1112.42056025 1097.60421224 -1113.93790933 1062.35561102 -1113.8114624 1027.02374268 C-1113.79437231 1022.21511946 -1113.80457576 1017.40699503 -1113.82178497 1012.59838867 C-1113.92825134 977.3853122 -1112.17082182 942.25048676 -1108.17034912 907.25323486 C-1108.06808014 906.33572449 -1107.96581116 905.41821411 -1107.86044312 904.47290039 C-1100.36937562 837.62333459 -1086.48076626 771.16651504 -1065.42034912 707.25323486 C-1064.85162693 705.5154541 -1064.28294372 703.77766058 -1063.71429443 702.03985596 C-1055.51576641 677.06474265 -1046.5859205 652.49427053 -1036.42034912 628.25323486 C-1035.89259991 626.98780596 -1035.36492915 625.72234434 -1034.83734131 624.45684814 C-1018.7289162 585.92757885 -1000.31265903 548.40997465 -979.42034912 512.25323486 C-978.74774624 511.08547313 -978.0752231 509.91766546 -977.402771 508.74981689 C-969.01182521 494.19320565 -960.46411943 479.78756422 -951.12738037 465.81085205 C-949.23635443 462.97755861 -947.35937384 460.13521417 -945.48284912 457.29229736 C-926.64067703 428.8083288 -906.4951475 401.50054309 -884.89251709 375.05743408 C-883.59763401 373.4705044 -882.30744434 371.8797475 -881.01800537 370.28839111 C-872.5228417 359.82689661 -863.75158285 349.62211569 -854.64300537 339.69073486 C-852.74613148 337.61050761 -850.88641969 335.50766589 -849.04534912 333.37823486 C-841.32641922 324.52310733 -833.27895161 316.02685516 -824.92132568 307.7756958 C-822.16757467 305.04515521 -819.52787476 302.29984497 -817.04534912 299.31573486 C-813.15096249 294.72557692 -808.67697197 290.75442448 -804.25653076 286.68292236 C-800.06757507 282.81730832 -795.98467927 278.87441103 -791.98284912 274.81573486 C-788.29044024 271.07990717 -784.53489653 267.49007023 -780.53363037 264.08526611 C-778.36358584 262.20402603 -776.25508561 260.26336274 -774.15032959 258.30963135 C-768.93831229 253.47296509 -763.59983498 248.88462577 -758.05706787 244.42510986 C-755.49614884 242.31567137 -753.04911457 240.12435838 -750.60784912 237.87823486 C-746.23526476 233.8981502 -741.67865621 230.23975989 -737.01043701 226.61871338 C-733.1447713 223.61794705 -729.33127776 220.56362334 -725.54827881 217.45928955 C-717.02419843 210.46463949 -708.31146386 203.77380636 -699.42034912 197.25323486 C-698.73279541 196.74856689 -698.0452417 196.24389893 -697.33685303 195.72393799 C-678.342664 181.81912202 -659.06325246 168.3823103 -639.08929443 155.91925049 C-636.48408757 154.29302183 -633.88549389 152.6566376 -631.28753662 151.01885986 C-609.83627568 137.5541378 -587.79115713 125.11862948 -565.42034912 113.25323486 C-564.35735596 112.68749756 -563.29436279 112.12176025 -562.19915771 111.53887939 C-545.20285761 102.51863722 -527.97718083 94.12616809 -510.42034912 86.25323486 C-509.819646 85.9838208 -509.21894287 85.71440674 -508.60003662 85.43682861 C-480.08139237 72.66728641 -450.99206776 61.35349715 -421.42034912 51.25323486 C-420.70145508 51.00766846 -419.98256104 50.76210205 -419.24188232 50.50909424 C-393.24827691 41.65593705 -367.04657091 33.96294947 -340.42034912 27.25323486 C-339.67587524 27.06523315 -338.93140137 26.87723145 -338.16436768 26.68353271 C-287.2309144 13.86130387 -235.47376462 5.43990059 -183.20300293 0.51751709 C-180.5840392 0.26878131 -177.96630362 0.00968219 -175.34857178 -0.25164795 C-117.90260807 -5.86895626 -57.4321768 -5.64278694 0 0 Z " fill="#A6CE39" transform="translate(1113.4203491210938,2.74676513671875)"/>
<path d="M0 0 C239.85109219 0 239.85109219 0 272.5625 5.875 C274.09452461 6.13734244 275.6266732 6.39896176 277.15893555 6.65991211 C293.57969944 9.49582004 309.83450175 12.85518856 325.640625 18.203125 C327.38829642 18.79339813 329.13874029 19.37547653 330.890625 19.953125 C345.67229962 24.83180579 360.01860399 30.14398754 374 37 C374.97291992 37.47421387 375.94583984 37.94842773 376.94824219 38.43701172 C397.455028 48.52279179 416.41584506 60.39211052 434 75 C434.56203125 75.46051758 435.1240625 75.92103516 435.703125 76.39550781 C449.08278857 87.38702197 461.29813069 99.37006626 472 113 C472.69996094 113.82113281 473.39992188 114.64226562 474.12109375 115.48828125 C520.35813223 169.80237815 539.19046351 243.49935086 539.18530273 313.48461914 C539.18748859 316.79521565 539.20570324 320.10547774 539.22460938 323.41601562 C539.25692511 335.4409594 538.79685976 347.10795315 537 359 C536.78089966 360.56004761 536.78089966 360.56004761 536.55737305 362.15161133 C527.36357143 425.67878768 501.05590268 488.11717938 456.69921875 535.11328125 C454.57669609 537.38324398 452.55281923 539.67903129 450.5625 542.0625 C442.13449127 551.75267429 431.99336817 559.91568586 421.78710938 567.64550781 C420.60230859 568.54349617 419.42125483 569.44645136 418.24414062 570.35449219 C407.69792294 578.48362446 396.55587025 585.39930929 385 592 C384.28618164 592.40992188 383.57236328 592.81984375 382.83691406 593.2421875 C355.76217621 608.6323103 325.51812861 619.02444441 295.11474609 625.33691406 C292.20489243 625.95638126 289.31699798 626.63537938 286.42578125 627.3359375 C199.34828164 647.11265799 69.83971793 635 0 635 C0 425.45 0 215.9 0 0 Z " fill="#A6CE39" transform="translate(994,744)"/>
<path d="M0 0 C401.00217391 0 401.00217391 0 461 13 C462.42143311 13.30647461 462.42143311 13.30647461 463.87158203 13.61914062 C491.62719637 19.74277468 519.14040103 29.24885941 545 41 C545.99966797 41.45310547 546.99933594 41.90621094 548.02929688 42.37304688 C572.34259244 53.49947027 595.26251105 66.42076003 617 82 C617.91676514 82.65476318 617.91676514 82.65476318 618.85205078 83.32275391 C631.72530156 92.58109968 643.970009 102.75931642 655.51708984 113.61865234 C657.0655641 115.0610737 658.63339318 116.47962701 660.20703125 117.89453125 C667.94039914 124.87238647 675.07585084 132.2228598 682 140 C682.76497803 140.84788086 682.76497803 140.84788086 683.54541016 141.71289062 C701.76195719 161.93206647 717.49951307 184.38512389 731 208 C731.44279297 208.7719873 731.88558594 209.54397461 732.34179688 210.33935547 C745.93731345 234.21543242 757.0623041 259.02535331 766 285 C766.44182617 286.27979736 766.44182617 286.27979736 766.89257812 287.58544922 C782.03468806 332.03575145 789.44909471 379.10864332 789.26074219 426.01928711 C789.24996679 429.19729511 789.26075383 432.3747426 789.2734375 435.55273438 C789.28604814 453.10327439 787.97381284 470.35350282 785.1875 487.6875 C784.93202393 489.30168823 784.93202393 489.30168823 784.67138672 490.94848633 C777.17796111 537.41649331 763.81712496 581.18750839 742.02001953 623.02929688 C740.92154445 625.15157808 739.84936738 627.28612014 738.77734375 629.421875 C725.850713 654.89824343 709.30467826 678.13607874 691 700 C690.26813477 700.88051025 690.26813477 700.88051025 689.52148438 701.77880859 C674.13191777 720.2556597 657.46051535 737.91613446 638.61328125 752.91015625 C635.83498966 755.13195894 633.14129009 757.43827797 630.4375 759.75 C459.14656257 902.49244786 195.99157711 857 0 857 C0 574.19 0 291.38 0 0 Z M123 111 C123 320.55 123 530.1 123 746 C259.52186958 752.48929353 259.52186958 752.48929353 412.20556641 737.65771484 C415.1513136 736.96438591 418.10646505 736.36120515 421.07421875 735.76953125 C463.42156298 727.07987194 504.35546995 708.77739335 539 683 C539.58716797 682.56977539 540.17433594 682.13955078 540.77929688 681.69628906 C548.33056454 676.15609784 555.27417325 670.15900515 562.078125 663.734375 C564.34423402 661.59560799 566.66976182 659.55974426 569.0625 657.5625 C578.80442605 649.08948028 586.95053675 638.8914239 594.74023438 628.64941406 C595.90197161 627.12834879 597.08295431 625.622034 598.265625 624.1171875 C616.13447064 601.04195159 629.24181564 575.00690027 640 548 C640.36577148 547.10974121 640.73154297 546.21948242 641.10839844 545.30224609 C651.41612649 520.12332164 657.70704625 491.96557503 661 465 C661.15033691 463.77494751 661.15033691 463.77494751 661.30371094 462.52514648 C662.43262144 451.46202448 662.2421074 440.29536005 662.25 429.1875 C662.25200912 427.52267578 662.25200912 427.52267578 662.25405884 425.82421875 C662.24931983 407.68917233 661.4594648 389.97984195 659 372 C658.89316895 371.1538916 658.78633789 370.3077832 658.67626953 369.43603516 C654.50675794 336.86728863 643.39354619 305.34963608 629 276 C628.62407715 275.22366211 628.2481543 274.44732422 627.86083984 273.64746094 C617.87952743 253.2101875 604.4714269 233.96974993 589.0703125 217.25390625 C587.22684843 215.24696517 585.45220907 213.20087758 583.6875 211.125 C576.42887326 202.82703179 568.58335364 195.1647592 559.9375 188.32421875 C557.84271699 186.66677741 555.78977575 184.99148983 553.75 183.26953125 C437.84495899 86.35439815 255.56394551 111 123 111 Z " fill="#FEFEFE" transform="translate(871,633)"/>
<path d="M0 0 C40.92 0 81.84 0 124 0 C124 282.81 124 565.62 124 857 C83.08 857 42.16 857 0 857 C0 574.19 0 291.38 0 0 Z " fill="#FEFEFD" transform="translate(567,633)"/>
<path d="M0 0 C1.04607422 -0.00322266 2.09214844 -0.00644531 3.16992188 -0.00976562 C25.80917777 0.14481651 44.57329494 9.26007556 60.4375 25.3125 C70.71693303 36.48332298 77.01018512 48.63507244 80.4375 63.3125 C80.6125708 63.91690918 80.7876416 64.52131836 80.96801758 65.14404297 C82.00339596 69.92627426 81.66570139 74.94051177 81.6875 79.8125 C81.7184375 81.49472656 81.7184375 81.49472656 81.75 83.2109375 C81.84795176 104.417494 72.41442069 124.25582545 57.68359375 139.26171875 C49.8788364 146.82560311 40.61776919 152.5308833 30.4375 156.3125 C29.20773437 156.77785156 27.97796875 157.24320313 26.7109375 157.72265625 C6.61315932 164.75157195 -15.48080847 162.60461954 -34.5625 153.625 C-55.49611882 142.73404537 -69.1311174 125.63367042 -76.4921875 103.51953125 C-77.23480337 101.12547914 -77.93976087 98.74034106 -78.5625 96.3125 C-78.74683594 95.59449219 -78.93117188 94.87648438 -79.12109375 94.13671875 C-82.61660683 71.77162179 -77.06741152 50.18518208 -63.8894043 31.97998047 C-48.61440648 11.83550566 -25.33454734 -0.39169059 0 0 Z " fill="#FEFEFE" transform="translate(627.5625,373.6875)"/>
</svg>
