<?xml version="1.0" encoding="UTF-8"?>
<svg xmlns="http://www.w3.org/2000/svg" viewBox="0 0 389 129" fill="currentColor" role="img" aria-label="shirt">
<path d="M246 1124 c-33 -8 -61 -16 -62 -17 -2 -2 3 -27 12 -57 8 -30 19 -105
24 -165 5 -61 16 -130 25 -154 8 -24 15 -58 15 -75 0 -20 -48 -140 -120 -302
l-120 -269 22 -17 c13 -9 55 -27 93 -40 67 -22 83 -23 395 -23 312 0 328 1
395 23 39 13 80 31 93 40 l22 17 -120 269 c-72 162 -120 282 -120 302 0 17 7
51 15 75 9 24 20 93 25 154 5 60 16 135 25 165 8 30 15 56 15 57 0 3 -139 33
-152 33 -7 -1 -24 -24 -38 -53 -31 -64 -87 -97 -165 -97 -73 0 -124 32 -155
97 -28 58 -31 59 -124 37z m173 -156 c108 -56 241 -25 306 73 29 42 33 45 62
37 l30 -8 -13 -57 c-8 -32 -14 -87 -15 -123 0 -36 -6 -87 -13 -115 l-11 -50
-235 0 -235 0 -11 50 c-7 28 -13 79 -13 115 -1 36 -7 91 -15 123 l-13 57 30 8
c29 8 33 5 62 -37 20 -30 48 -55 84 -73z m339 -315 c3 -10 -47 -13 -227 -13
-211 0 -244 3 -224 24 4 3 106 5 227 4 165 -2 220 -6 224 -15z m-378 -80 c0
-10 -9 -56 -20 -103 -24 -106 -24 -100 3 -100 22 0 26 8 48 108 l25 107 91 3
92 3 10 -38 c6 -21 17 -71 26 -110 13 -59 20 -73 35 -73 10 0 21 3 24 8 2 4
-4 43 -15 87 -29 121 -28 127 23 123 l41 -3 108 -240 107 -240 -39 -18 c-84
-38 -183 -50 -409 -50 -226 0 -325 12 -409 50 l-39 18 94 210 c51 116 100 225
109 243 13 28 19 32 55 32 32 0 40 -4 40 -17z"/>
</g>
</svg>
