<svg xmlns="http://www.w3.org/2000/svg" viewBox="0 0 1130 1330" width="1em" height="1em" fill="currentColor" role="img" aria-label="dress">
  <path d="M246 206c-33 8-61 16-62 17-2 2 3 27 12 57 8 30 19 105 24 165 5 61 16 130 25 154 8 24 15 58 15 75 0 20-48 140-120 302l-120 269 22 17c13 9 55 27 93 40 67 22 83 23 395 23s328-1 395-23c39-13 80-31 93-40l22-17-120-269c-72-162-120-282-120-302 0-17 7-51 15-75 9-24 20-93 25-154 5-60 16-135 25-165 8-30 15-56 15-57 0-3-139-33-152-33-7 1-24 24-38 53-31 64-87 97-165 97s-124-32-155-97c-28-58-31-59-124-37zm173 156c108 56 241 25 306-73 29-42 33-45 62-37l30 8-13 57c-8 32-14 87-15 123 0 36-6 87-13 115l-11 50H720H485l-11-50c-7-28-13-79-13-115-1-36-7-91-15-123l-13-57 30-8c29-8 33-5 62 37 20 30 48 55 84 73zm339 315c3 10-47 13-227 13-211 0-244-3-224-24 4-3 106-5 227-4 165 2 220 6 224 15zm-378 80c0 10-9 56-20 103-24 106-24 100 3 100 22 0 26-8 48-108l25-107 91-3 92-3 10 38c6 21 17 71 26 110 13 59 20 73 35 73 10 0 21-3 24-8 2-4-4-43-15-87-29-121-28-127 23-123l41 3 108 240 107 240-39 18c-84 38-183 50-409 50s-325-12-409-50l-39-18 94-210c51-116 100-225 109-243 13-28 19-32 55-32 32 0 40 4 40 17z"/>
</svg>